%TF.GenerationSoftware,KiCad,Pcbnew,(6.0.9)*%
%TF.CreationDate,2022-11-14T07:28:00+00:00*%
%TF.ProjectId,mega485,6d656761-3438-4352-9e6b-696361645f70,rev?*%
%TF.SameCoordinates,Original*%
%TF.FileFunction,Paste,Top*%
%TF.FilePolarity,Positive*%
%FSLAX46Y46*%
G04 Gerber Fmt 4.6, Leading zero omitted, Abs format (unit mm)*
G04 Created by KiCad (PCBNEW (6.0.9)) date 2022-11-14 07:28:00*
%MOMM*%
%LPD*%
G01*
G04 APERTURE LIST*
G04 Aperture macros list*
%AMRoundRect*
0 Rectangle with rounded corners*
0 $1 Rounding radius*
0 $2 $3 $4 $5 $6 $7 $8 $9 X,Y pos of 4 corners*
0 Add a 4 corners polygon primitive as box body*
4,1,4,$2,$3,$4,$5,$6,$7,$8,$9,$2,$3,0*
0 Add four circle primitives for the rounded corners*
1,1,$1+$1,$2,$3*
1,1,$1+$1,$4,$5*
1,1,$1+$1,$6,$7*
1,1,$1+$1,$8,$9*
0 Add four rect primitives between the rounded corners*
20,1,$1+$1,$2,$3,$4,$5,0*
20,1,$1+$1,$4,$5,$6,$7,0*
20,1,$1+$1,$6,$7,$8,$9,0*
20,1,$1+$1,$8,$9,$2,$3,0*%
G04 Aperture macros list end*
%ADD10RoundRect,0.250000X0.450000X-0.262500X0.450000X0.262500X-0.450000X0.262500X-0.450000X-0.262500X0*%
%ADD11RoundRect,0.250000X-0.450000X0.262500X-0.450000X-0.262500X0.450000X-0.262500X0.450000X0.262500X0*%
%ADD12RoundRect,0.250000X-0.262500X-0.450000X0.262500X-0.450000X0.262500X0.450000X-0.262500X0.450000X0*%
%ADD13RoundRect,0.243750X-0.243750X-0.456250X0.243750X-0.456250X0.243750X0.456250X-0.243750X0.456250X0*%
%ADD14RoundRect,0.225000X-0.250000X0.225000X-0.250000X-0.225000X0.250000X-0.225000X0.250000X0.225000X0*%
%ADD15RoundRect,0.218750X-0.218750X-0.381250X0.218750X-0.381250X0.218750X0.381250X-0.218750X0.381250X0*%
%ADD16RoundRect,0.250000X0.625000X-0.312500X0.625000X0.312500X-0.625000X0.312500X-0.625000X-0.312500X0*%
%ADD17RoundRect,0.250000X0.325000X0.650000X-0.325000X0.650000X-0.325000X-0.650000X0.325000X-0.650000X0*%
%ADD18R,0.650000X1.060000*%
%ADD19RoundRect,0.250000X0.650000X-0.325000X0.650000X0.325000X-0.650000X0.325000X-0.650000X-0.325000X0*%
%ADD20RoundRect,0.250000X-0.325000X-0.650000X0.325000X-0.650000X0.325000X0.650000X-0.325000X0.650000X0*%
%ADD21RoundRect,0.250000X0.312500X0.625000X-0.312500X0.625000X-0.312500X-0.625000X0.312500X-0.625000X0*%
%ADD22RoundRect,0.250000X0.262500X0.450000X-0.262500X0.450000X-0.262500X-0.450000X0.262500X-0.450000X0*%
%ADD23RoundRect,0.250000X-0.625000X0.312500X-0.625000X-0.312500X0.625000X-0.312500X0.625000X0.312500X0*%
%ADD24RoundRect,0.218750X0.381250X-0.218750X0.381250X0.218750X-0.381250X0.218750X-0.381250X-0.218750X0*%
%ADD25R,0.900000X0.800000*%
%ADD26RoundRect,0.150000X-0.875000X-0.150000X0.875000X-0.150000X0.875000X0.150000X-0.875000X0.150000X0*%
G04 APERTURE END LIST*
D10*
%TO.C,R7*%
X123190000Y-91590500D03*
X123190000Y-89765500D03*
%TD*%
D11*
%TO.C,R6*%
X123190000Y-85955500D03*
X123190000Y-87780500D03*
%TD*%
D10*
%TO.C,R5*%
X122936000Y-71524500D03*
X122936000Y-69699500D03*
%TD*%
D12*
%TO.C,R4*%
X122531500Y-82296000D03*
X124356500Y-82296000D03*
%TD*%
%TO.C,R3*%
X122277500Y-62484000D03*
X124102500Y-62484000D03*
%TD*%
%TO.C,R2*%
X122277500Y-56642000D03*
X124102500Y-56642000D03*
%TD*%
%TO.C,R1*%
X122277500Y-53594000D03*
X124102500Y-53594000D03*
%TD*%
D13*
%TO.C,D4*%
X122506500Y-79756000D03*
X124381500Y-79756000D03*
%TD*%
%TO.C,D3*%
X124127500Y-59944000D03*
X122252500Y-59944000D03*
%TD*%
%TO.C,D2*%
X118188500Y-56642000D03*
X120063500Y-56642000D03*
%TD*%
%TO.C,D1*%
X118188500Y-53594000D03*
X120063500Y-53594000D03*
%TD*%
D14*
%TO.C,C18*%
X131111500Y-82372500D03*
X131111500Y-83922500D03*
%TD*%
D15*
%TO.C,L3*%
X129747500Y-76962000D03*
X131872500Y-76962000D03*
%TD*%
D16*
%TO.C,R31*%
X160528000Y-79186500D03*
X160528000Y-76261500D03*
%TD*%
D15*
%TO.C,L2*%
X129747500Y-56896000D03*
X131872500Y-56896000D03*
%TD*%
D17*
%TO.C,C22*%
X131777000Y-74422000D03*
X128827000Y-74422000D03*
%TD*%
D16*
%TO.C,R33*%
X153463500Y-79276000D03*
X153463500Y-76351000D03*
%TD*%
D11*
%TO.C,R18*%
X127047500Y-82489000D03*
X127047500Y-84314000D03*
%TD*%
D10*
%TO.C,R38*%
X149098000Y-91590500D03*
X149098000Y-89765500D03*
%TD*%
D18*
%TO.C,U7*%
X126812000Y-69680000D03*
X127762000Y-69680000D03*
X128712000Y-69680000D03*
X128712000Y-67480000D03*
X126812000Y-67480000D03*
%TD*%
D19*
%TO.C,C25*%
X150622000Y-59133000D03*
X150622000Y-56183000D03*
%TD*%
D10*
%TO.C,R34*%
X149098000Y-67968500D03*
X149098000Y-66143500D03*
%TD*%
D14*
%TO.C,C27*%
X149352000Y-62738000D03*
X149352000Y-64288000D03*
%TD*%
D11*
%TO.C,R24*%
X122936000Y-65889500D03*
X122936000Y-67714500D03*
%TD*%
D16*
%TO.C,R40*%
X156718000Y-59120500D03*
X156718000Y-56195500D03*
%TD*%
D14*
%TO.C,C20*%
X132889500Y-83922500D03*
X132889500Y-82372500D03*
%TD*%
D20*
%TO.C,C15*%
X128827000Y-59436000D03*
X131777000Y-59436000D03*
%TD*%
D21*
%TO.C,R26*%
X154116500Y-66040000D03*
X151191500Y-66040000D03*
%TD*%
D10*
%TO.C,R35*%
X149098000Y-71778500D03*
X149098000Y-69953500D03*
%TD*%
D22*
%TO.C,R20*%
X132786000Y-89751500D03*
X130961000Y-89751500D03*
%TD*%
D14*
%TO.C,C28*%
X149399500Y-82626500D03*
X149399500Y-84176500D03*
%TD*%
%TO.C,C19*%
X132842000Y-64034000D03*
X132842000Y-62484000D03*
%TD*%
D21*
%TO.C,R29*%
X151191500Y-85852000D03*
X154116500Y-85852000D03*
%TD*%
D14*
%TO.C,C16*%
X130810000Y-64021000D03*
X130810000Y-62471000D03*
%TD*%
D23*
%TO.C,R36*%
X160528000Y-62037500D03*
X160528000Y-64962500D03*
%TD*%
D20*
%TO.C,C17*%
X128827000Y-79502000D03*
X131777000Y-79502000D03*
%TD*%
D16*
%TO.C,R32*%
X153670000Y-59120500D03*
X153670000Y-56195500D03*
%TD*%
D19*
%TO.C,C26*%
X150415500Y-79288500D03*
X150415500Y-76338500D03*
%TD*%
D22*
%TO.C,R23*%
X132738500Y-67310000D03*
X130913500Y-67310000D03*
%TD*%
D16*
%TO.C,R41*%
X156511500Y-79276000D03*
X156511500Y-76351000D03*
%TD*%
D24*
%TO.C,L4*%
X147320000Y-57103500D03*
X147320000Y-59228500D03*
%TD*%
D21*
%TO.C,R27*%
X154116500Y-68580000D03*
X151191500Y-68580000D03*
%TD*%
D23*
%TO.C,R39*%
X160528000Y-81849500D03*
X160528000Y-84774500D03*
%TD*%
D25*
%TO.C,D11*%
X157972000Y-68260000D03*
X157972000Y-66360000D03*
X155972000Y-67310000D03*
%TD*%
D24*
%TO.C,L5*%
X147367500Y-79384000D03*
X147367500Y-77259000D03*
%TD*%
D11*
%TO.C,R17*%
X127000000Y-62587500D03*
X127000000Y-64412500D03*
%TD*%
D17*
%TO.C,C21*%
X131777000Y-54356000D03*
X128827000Y-54356000D03*
%TD*%
D18*
%TO.C,U6*%
X126605500Y-89581500D03*
X127555500Y-89581500D03*
X128505500Y-89581500D03*
X128505500Y-87381500D03*
X126605500Y-87381500D03*
%TD*%
D25*
%TO.C,D12*%
X155972000Y-87122000D03*
X157972000Y-86172000D03*
X157972000Y-88072000D03*
%TD*%
D22*
%TO.C,R22*%
X132786000Y-87211500D03*
X130961000Y-87211500D03*
%TD*%
D10*
%TO.C,R37*%
X149098000Y-87780500D03*
X149098000Y-85955500D03*
%TD*%
D16*
%TO.C,R28*%
X160528000Y-59120500D03*
X160528000Y-56195500D03*
%TD*%
D26*
%TO.C,U11*%
X135351500Y-82766500D03*
X135351500Y-84036500D03*
X135351500Y-85306500D03*
X135351500Y-86576500D03*
X135351500Y-87846500D03*
X135351500Y-89116500D03*
X135351500Y-90386500D03*
X135351500Y-91656500D03*
X144651500Y-91656500D03*
X144651500Y-90386500D03*
X144651500Y-89116500D03*
X144651500Y-87846500D03*
X144651500Y-86576500D03*
X144651500Y-85306500D03*
X144651500Y-84036500D03*
X144651500Y-82766500D03*
%TD*%
%TO.C,U9*%
X135304000Y-62865000D03*
X135304000Y-64135000D03*
X135304000Y-65405000D03*
X135304000Y-66675000D03*
X135304000Y-67945000D03*
X135304000Y-69215000D03*
X135304000Y-70485000D03*
X135304000Y-71755000D03*
X144604000Y-71755000D03*
X144604000Y-70485000D03*
X144604000Y-69215000D03*
X144604000Y-67945000D03*
X144604000Y-66675000D03*
X144604000Y-65405000D03*
X144604000Y-64135000D03*
X144604000Y-62865000D03*
%TD*%
D22*
%TO.C,R21*%
X132738500Y-69596000D03*
X130913500Y-69596000D03*
%TD*%
D21*
%TO.C,R30*%
X151191500Y-88392000D03*
X154116500Y-88392000D03*
%TD*%
D14*
%TO.C,C23*%
X147320000Y-62725000D03*
X147320000Y-64275000D03*
%TD*%
%TO.C,C24*%
X147367500Y-82626500D03*
X147367500Y-84176500D03*
%TD*%
M02*
