%TF.GenerationSoftware,KiCad,Pcbnew,(6.0.9)*%
%TF.CreationDate,2022-11-14T07:27:59+00:00*%
%TF.ProjectId,mega485,6d656761-3438-4352-9e6b-696361645f70,rev?*%
%TF.SameCoordinates,Original*%
%TF.FileFunction,Copper,L1,Top*%
%TF.FilePolarity,Positive*%
%FSLAX46Y46*%
G04 Gerber Fmt 4.6, Leading zero omitted, Abs format (unit mm)*
G04 Created by KiCad (PCBNEW (6.0.9)) date 2022-11-14 07:27:59*
%MOMM*%
%LPD*%
G01*
G04 APERTURE LIST*
G04 Aperture macros list*
%AMRoundRect*
0 Rectangle with rounded corners*
0 $1 Rounding radius*
0 $2 $3 $4 $5 $6 $7 $8 $9 X,Y pos of 4 corners*
0 Add a 4 corners polygon primitive as box body*
4,1,4,$2,$3,$4,$5,$6,$7,$8,$9,$2,$3,0*
0 Add four circle primitives for the rounded corners*
1,1,$1+$1,$2,$3*
1,1,$1+$1,$4,$5*
1,1,$1+$1,$6,$7*
1,1,$1+$1,$8,$9*
0 Add four rect primitives between the rounded corners*
20,1,$1+$1,$2,$3,$4,$5,0*
20,1,$1+$1,$4,$5,$6,$7,0*
20,1,$1+$1,$6,$7,$8,$9,0*
20,1,$1+$1,$8,$9,$2,$3,0*%
G04 Aperture macros list end*
%TA.AperFunction,ComponentPad*%
%ADD10O,1.700000X1.700000*%
%TD*%
%TA.AperFunction,ComponentPad*%
%ADD11R,1.700000X1.700000*%
%TD*%
%TA.AperFunction,SMDPad,CuDef*%
%ADD12RoundRect,0.250000X0.450000X-0.262500X0.450000X0.262500X-0.450000X0.262500X-0.450000X-0.262500X0*%
%TD*%
%TA.AperFunction,SMDPad,CuDef*%
%ADD13RoundRect,0.250000X-0.450000X0.262500X-0.450000X-0.262500X0.450000X-0.262500X0.450000X0.262500X0*%
%TD*%
%TA.AperFunction,SMDPad,CuDef*%
%ADD14RoundRect,0.250000X-0.262500X-0.450000X0.262500X-0.450000X0.262500X0.450000X-0.262500X0.450000X0*%
%TD*%
%TA.AperFunction,SMDPad,CuDef*%
%ADD15RoundRect,0.243750X-0.243750X-0.456250X0.243750X-0.456250X0.243750X0.456250X-0.243750X0.456250X0*%
%TD*%
%TA.AperFunction,ComponentPad*%
%ADD16C,3.000000*%
%TD*%
%TA.AperFunction,ComponentPad*%
%ADD17R,3.000000X3.000000*%
%TD*%
%TA.AperFunction,SMDPad,CuDef*%
%ADD18RoundRect,0.225000X-0.250000X0.225000X-0.250000X-0.225000X0.250000X-0.225000X0.250000X0.225000X0*%
%TD*%
%TA.AperFunction,SMDPad,CuDef*%
%ADD19RoundRect,0.218750X-0.218750X-0.381250X0.218750X-0.381250X0.218750X0.381250X-0.218750X0.381250X0*%
%TD*%
%TA.AperFunction,SMDPad,CuDef*%
%ADD20RoundRect,0.250000X0.625000X-0.312500X0.625000X0.312500X-0.625000X0.312500X-0.625000X-0.312500X0*%
%TD*%
%TA.AperFunction,ComponentPad*%
%ADD21R,1.500000X2.000000*%
%TD*%
%TA.AperFunction,ComponentPad*%
%ADD22O,1.500000X2.000000*%
%TD*%
%TA.AperFunction,SMDPad,CuDef*%
%ADD23RoundRect,0.250000X0.325000X0.650000X-0.325000X0.650000X-0.325000X-0.650000X0.325000X-0.650000X0*%
%TD*%
%TA.AperFunction,SMDPad,CuDef*%
%ADD24R,0.650000X1.060000*%
%TD*%
%TA.AperFunction,SMDPad,CuDef*%
%ADD25RoundRect,0.250000X0.650000X-0.325000X0.650000X0.325000X-0.650000X0.325000X-0.650000X-0.325000X0*%
%TD*%
%TA.AperFunction,SMDPad,CuDef*%
%ADD26RoundRect,0.250000X-0.325000X-0.650000X0.325000X-0.650000X0.325000X0.650000X-0.325000X0.650000X0*%
%TD*%
%TA.AperFunction,SMDPad,CuDef*%
%ADD27RoundRect,0.250000X0.312500X0.625000X-0.312500X0.625000X-0.312500X-0.625000X0.312500X-0.625000X0*%
%TD*%
%TA.AperFunction,SMDPad,CuDef*%
%ADD28RoundRect,0.250000X0.262500X0.450000X-0.262500X0.450000X-0.262500X-0.450000X0.262500X-0.450000X0*%
%TD*%
%TA.AperFunction,SMDPad,CuDef*%
%ADD29RoundRect,0.250000X-0.625000X0.312500X-0.625000X-0.312500X0.625000X-0.312500X0.625000X0.312500X0*%
%TD*%
%TA.AperFunction,SMDPad,CuDef*%
%ADD30RoundRect,0.218750X0.381250X-0.218750X0.381250X0.218750X-0.381250X0.218750X-0.381250X-0.218750X0*%
%TD*%
%TA.AperFunction,SMDPad,CuDef*%
%ADD31R,0.900000X0.800000*%
%TD*%
%TA.AperFunction,SMDPad,CuDef*%
%ADD32RoundRect,0.150000X-0.875000X-0.150000X0.875000X-0.150000X0.875000X0.150000X-0.875000X0.150000X0*%
%TD*%
%TA.AperFunction,ViaPad*%
%ADD33C,0.800000*%
%TD*%
%TA.AperFunction,Conductor*%
%ADD34C,0.500000*%
%TD*%
%TA.AperFunction,Conductor*%
%ADD35C,0.750000*%
%TD*%
%TA.AperFunction,Conductor*%
%ADD36C,2.000000*%
%TD*%
%TA.AperFunction,Conductor*%
%ADD37C,1.000000*%
%TD*%
%TA.AperFunction,Conductor*%
%ADD38C,0.290000*%
%TD*%
G04 APERTURE END LIST*
D10*
%TO.P,J15,2,Pin_2*%
%TO.N,Net-(J9-Pad3)*%
X160782000Y-87889000D03*
D11*
%TO.P,J15,1,Pin_1*%
%TO.N,Net-(J15-Pad1)*%
X160782000Y-90429000D03*
%TD*%
D10*
%TO.P,J14,2,Pin_2*%
%TO.N,ISO5VB*%
X154686000Y-91440000D03*
D11*
%TO.P,J14,1,Pin_1*%
%TO.N,Net-(J14-Pad1)*%
X152146000Y-91440000D03*
%TD*%
%TO.P,J13,1,Pin_1*%
%TO.N,Net-(J13-Pad1)*%
X152903000Y-82550000D03*
D10*
%TO.P,J13,2,Pin_2*%
%TO.N,ISOGNDB*%
X155443000Y-82550000D03*
%TD*%
D11*
%TO.P,J12,1,Pin_1*%
%TO.N,Net-(J12-Pad1)*%
X160782000Y-70617000D03*
D10*
%TO.P,J12,2,Pin_2*%
%TO.N,Net-(D11-Pad1)*%
X160782000Y-68077000D03*
%TD*%
D11*
%TO.P,J11,1,Pin_1*%
%TO.N,Net-(J11-Pad1)*%
X152141000Y-71628000D03*
D10*
%TO.P,J11,2,Pin_2*%
%TO.N,ISOGNDA*%
X154681000Y-71628000D03*
%TD*%
D11*
%TO.P,J10,1,Pin_1*%
%TO.N,Net-(J10-Pad1)*%
X152654000Y-62484000D03*
D10*
%TO.P,J10,2,Pin_2*%
%TO.N,ISOGNDA*%
X155194000Y-62484000D03*
%TD*%
D12*
%TO.P,R7,1*%
%TO.N,GND*%
X123190000Y-91590500D03*
%TO.P,R7,2*%
%TO.N,Net-(R6-Pad2)*%
X123190000Y-89765500D03*
%TD*%
D13*
%TO.P,R6,1*%
%TO.N,+5V*%
X123190000Y-85955500D03*
%TO.P,R6,2*%
%TO.N,Net-(R6-Pad2)*%
X123190000Y-87780500D03*
%TD*%
D12*
%TO.P,R5,1*%
%TO.N,GND*%
X122936000Y-71524500D03*
%TO.P,R5,2*%
%TO.N,Net-(R24-Pad2)*%
X122936000Y-69699500D03*
%TD*%
D14*
%TO.P,R4,1*%
%TO.N,Net-(D4-Pad2)*%
X122531500Y-82296000D03*
%TO.P,R4,2*%
%TO.N,DE-B*%
X124356500Y-82296000D03*
%TD*%
%TO.P,R3,1*%
%TO.N,Net-(D3-Pad2)*%
X122277500Y-62484000D03*
%TO.P,R3,2*%
%TO.N,DE-A*%
X124102500Y-62484000D03*
%TD*%
%TO.P,R2,1*%
%TO.N,Net-(D2-Pad2)*%
X122277500Y-56642000D03*
%TO.P,R2,2*%
%TO.N,LED-1*%
X124102500Y-56642000D03*
%TD*%
%TO.P,R1,1*%
%TO.N,Net-(D1-Pad2)*%
X122277500Y-53594000D03*
%TO.P,R1,2*%
%TO.N,+5V*%
X124102500Y-53594000D03*
%TD*%
D15*
%TO.P,D4,1,K*%
%TO.N,GND*%
X122506500Y-79756000D03*
%TO.P,D4,2,A*%
%TO.N,Net-(D4-Pad2)*%
X124381500Y-79756000D03*
%TD*%
%TO.P,D3,2,A*%
%TO.N,Net-(D3-Pad2)*%
X124127500Y-59944000D03*
%TO.P,D3,1,K*%
%TO.N,GND*%
X122252500Y-59944000D03*
%TD*%
%TO.P,D2,1,K*%
%TO.N,GND*%
X118188500Y-56642000D03*
%TO.P,D2,2,A*%
%TO.N,Net-(D2-Pad2)*%
X120063500Y-56642000D03*
%TD*%
%TO.P,D1,1,K*%
%TO.N,GND*%
X118188500Y-53594000D03*
%TO.P,D1,2,A*%
%TO.N,Net-(D1-Pad2)*%
X120063500Y-53594000D03*
%TD*%
D16*
%TO.P,J16,2,Pin_2*%
%TO.N,GND*%
X112014000Y-74422000D03*
D17*
%TO.P,J16,1,Pin_1*%
%TO.N,+12V*%
X112014000Y-79502000D03*
%TD*%
D11*
%TO.P,J7,1,Pin_1*%
%TO.N,GND*%
X193980000Y-92380000D03*
D10*
%TO.P,J7,2,Pin_2*%
X196520000Y-92380000D03*
%TO.P,J7,3,Pin_3*%
%TO.N,/\u002A52*%
X193980000Y-89840000D03*
%TO.P,J7,4,Pin_4*%
%TO.N,/53*%
X196520000Y-89840000D03*
%TO.P,J7,5,Pin_5*%
%TO.N,/50*%
X193980000Y-87300000D03*
%TO.P,J7,6,Pin_6*%
%TO.N,/51*%
X196520000Y-87300000D03*
%TO.P,J7,7,Pin_7*%
%TO.N,/48*%
X193980000Y-84760000D03*
%TO.P,J7,8,Pin_8*%
%TO.N,/49*%
X196520000Y-84760000D03*
%TO.P,J7,9,Pin_9*%
%TO.N,/\u002A46*%
X193980000Y-82220000D03*
%TO.P,J7,10,Pin_10*%
%TO.N,/47*%
X196520000Y-82220000D03*
%TO.P,J7,11,Pin_11*%
%TO.N,/\u002A44*%
X193980000Y-79680000D03*
%TO.P,J7,12,Pin_12*%
%TO.N,/\u002A45*%
X196520000Y-79680000D03*
%TO.P,J7,13,Pin_13*%
%TO.N,/42*%
X193980000Y-77140000D03*
%TO.P,J7,14,Pin_14*%
%TO.N,/43*%
X196520000Y-77140000D03*
%TO.P,J7,15,Pin_15*%
%TO.N,/40*%
X193980000Y-74600000D03*
%TO.P,J7,16,Pin_16*%
%TO.N,/41*%
X196520000Y-74600000D03*
%TO.P,J7,17,Pin_17*%
%TO.N,/38*%
X193980000Y-72060000D03*
%TO.P,J7,18,Pin_18*%
%TO.N,/39*%
X196520000Y-72060000D03*
%TO.P,J7,19,Pin_19*%
%TO.N,/36*%
X193980000Y-69520000D03*
%TO.P,J7,20,Pin_20*%
%TO.N,/37*%
X196520000Y-69520000D03*
%TO.P,J7,21,Pin_21*%
%TO.N,/34*%
X193980000Y-66980000D03*
%TO.P,J7,22,Pin_22*%
%TO.N,/35*%
X196520000Y-66980000D03*
%TO.P,J7,23,Pin_23*%
%TO.N,/32*%
X193980000Y-64440000D03*
%TO.P,J7,24,Pin_24*%
%TO.N,/33*%
X196520000Y-64440000D03*
%TO.P,J7,25,Pin_25*%
%TO.N,/30*%
X193980000Y-61900000D03*
%TO.P,J7,26,Pin_26*%
%TO.N,/31*%
X196520000Y-61900000D03*
%TO.P,J7,27,Pin_27*%
%TO.N,/28*%
X193980000Y-59360000D03*
%TO.P,J7,28,Pin_28*%
%TO.N,/29*%
X196520000Y-59360000D03*
%TO.P,J7,29,Pin_29*%
%TO.N,/26*%
X193980000Y-56820000D03*
%TO.P,J7,30,Pin_30*%
%TO.N,/27*%
X196520000Y-56820000D03*
%TO.P,J7,31,Pin_31*%
%TO.N,/24*%
X193980000Y-54280000D03*
%TO.P,J7,32,Pin_32*%
%TO.N,/25*%
X196520000Y-54280000D03*
%TO.P,J7,33,Pin_33*%
%TO.N,/22*%
X193980000Y-51740000D03*
%TO.P,J7,34,Pin_34*%
%TO.N,/23*%
X196520000Y-51740000D03*
%TO.P,J7,35,Pin_35*%
%TO.N,+5V*%
X193980000Y-49200000D03*
%TO.P,J7,36,Pin_36*%
X196520000Y-49200000D03*
%TD*%
D11*
%TO.P,J1,1,Pin_1*%
%TO.N,unconnected-(J1-Pad1)*%
X127940000Y-97460000D03*
D10*
%TO.P,J1,2,Pin_2*%
%TO.N,/IOREF*%
X130480000Y-97460000D03*
%TO.P,J1,3,Pin_3*%
%TO.N,A_RESET*%
X133020000Y-97460000D03*
%TO.P,J1,4,Pin_4*%
%TO.N,+3V3*%
X135560000Y-97460000D03*
%TO.P,J1,5,Pin_5*%
%TO.N,+5V*%
X138100000Y-97460000D03*
%TO.P,J1,6,Pin_6*%
%TO.N,GND*%
X140640000Y-97460000D03*
%TO.P,J1,7,Pin_7*%
X143180000Y-97460000D03*
%TO.P,J1,8,Pin_8*%
%TO.N,+12V*%
X145720000Y-97460000D03*
%TD*%
D11*
%TO.P,J3,1,Pin_1*%
%TO.N,/A0*%
X150800000Y-97460000D03*
D10*
%TO.P,J3,2,Pin_2*%
%TO.N,/A1*%
X153340000Y-97460000D03*
%TO.P,J3,3,Pin_3*%
%TO.N,/A2*%
X155880000Y-97460000D03*
%TO.P,J3,4,Pin_4*%
%TO.N,/A3*%
X158420000Y-97460000D03*
%TO.P,J3,5,Pin_5*%
%TO.N,TCK*%
X160960000Y-97460000D03*
%TO.P,J3,6,Pin_6*%
%TO.N,TMS*%
X163500000Y-97460000D03*
%TO.P,J3,7,Pin_7*%
%TO.N,TDO*%
X166040000Y-97460000D03*
%TO.P,J3,8,Pin_8*%
%TO.N,TDI*%
X168580000Y-97460000D03*
%TD*%
D11*
%TO.P,J5,1,Pin_1*%
%TO.N,/A8*%
X173660000Y-97460000D03*
D10*
%TO.P,J5,2,Pin_2*%
%TO.N,/A9*%
X176200000Y-97460000D03*
%TO.P,J5,3,Pin_3*%
%TO.N,/A10*%
X178740000Y-97460000D03*
%TO.P,J5,4,Pin_4*%
%TO.N,/A11*%
X181280000Y-97460000D03*
%TO.P,J5,5,Pin_5*%
%TO.N,/A12*%
X183820000Y-97460000D03*
%TO.P,J5,6,Pin_6*%
%TO.N,/A13*%
X186360000Y-97460000D03*
%TO.P,J5,7,Pin_7*%
%TO.N,/A14*%
X188900000Y-97460000D03*
%TO.P,J5,8,Pin_8*%
%TO.N,/A15*%
X191440000Y-97460000D03*
%TD*%
D11*
%TO.P,J2,1,Pin_1*%
%TO.N,/SCL{slash}21A*%
X118796000Y-49200000D03*
D10*
%TO.P,J2,2,Pin_2*%
%TO.N,/SDA{slash}20A*%
X121336000Y-49200000D03*
%TO.P,J2,3,Pin_3*%
%TO.N,/AREF*%
X123876000Y-49200000D03*
%TO.P,J2,4,Pin_4*%
%TO.N,GND*%
X126416000Y-49200000D03*
%TO.P,J2,5,Pin_5*%
%TO.N,/\u002A13*%
X128956000Y-49200000D03*
%TO.P,J2,6,Pin_6*%
%TO.N,DE-B*%
X131496000Y-49200000D03*
%TO.P,J2,7,Pin_7*%
%TO.N,DE-A*%
X134036000Y-49200000D03*
%TO.P,J2,8,Pin_8*%
%TO.N,LED-1*%
X136576000Y-49200000D03*
%TO.P,J2,9,Pin_9*%
%TO.N,/\u002A9*%
X139116000Y-49200000D03*
%TO.P,J2,10,Pin_10*%
%TO.N,/\u002A8*%
X141656000Y-49200000D03*
%TD*%
D11*
%TO.P,J4,1,Pin_1*%
%TO.N,Rx-B*%
X145720000Y-49200000D03*
D10*
%TO.P,J4,2,Pin_2*%
%TO.N,Rx-A*%
X148260000Y-49200000D03*
%TO.P,J4,3,Pin_3*%
%TO.N,/\u002A5*%
X150800000Y-49200000D03*
%TO.P,J4,4,Pin_4*%
%TO.N,/\u002A4*%
X153340000Y-49200000D03*
%TO.P,J4,5,Pin_5*%
%TO.N,/\u002A3*%
X155880000Y-49200000D03*
%TO.P,J4,6,Pin_6*%
%TO.N,/\u002A2*%
X158420000Y-49200000D03*
%TO.P,J4,7,Pin_7*%
%TO.N,/TX0{slash}1*%
X160960000Y-49200000D03*
%TO.P,J4,8,Pin_8*%
%TO.N,/RX0{slash}0*%
X163500000Y-49200000D03*
%TD*%
D11*
%TO.P,J6,1,Pin_1*%
%TO.N,/TX3{slash}14*%
X168580000Y-49200000D03*
D10*
%TO.P,J6,2,Pin_2*%
%TO.N,/RX3{slash}15*%
X171120000Y-49200000D03*
%TO.P,J6,3,Pin_3*%
%TO.N,Tx-B*%
X173660000Y-49200000D03*
%TO.P,J6,4,Pin_4*%
%TO.N,Rx-B*%
X176200000Y-49200000D03*
%TO.P,J6,5,Pin_5*%
%TO.N,Tx-A*%
X178740000Y-49200000D03*
%TO.P,J6,6,Pin_6*%
%TO.N,Rx-A*%
X181280000Y-49200000D03*
%TO.P,J6,7,Pin_7*%
%TO.N,/SDA{slash}20*%
X183820000Y-49200000D03*
%TO.P,J6,8,Pin_8*%
%TO.N,/SCL{slash}21*%
X186360000Y-49200000D03*
%TD*%
D18*
%TO.P,C18,1*%
%TO.N,+5V*%
X131111500Y-82372500D03*
%TO.P,C18,2*%
%TO.N,GND*%
X131111500Y-83922500D03*
%TD*%
D19*
%TO.P,L3,1*%
%TO.N,+5V*%
X129747500Y-76962000D03*
%TO.P,L3,2*%
%TO.N,Net-(C22-Pad1)*%
X131872500Y-76962000D03*
%TD*%
D20*
%TO.P,R31,1*%
%TO.N,Net-(J9-Pad1)*%
X160528000Y-79186500D03*
%TO.P,R31,2*%
%TO.N,ISOGNDB*%
X160528000Y-76261500D03*
%TD*%
D17*
%TO.P,J8,1,Pin_1*%
%TO.N,Net-(R28-Pad1)*%
X167132000Y-58420000D03*
D16*
%TO.P,J8,2,Pin_2*%
%TO.N,Net-(D11-Pad2)*%
X167132000Y-63500000D03*
%TO.P,J8,3,Pin_3*%
%TO.N,Net-(D11-Pad1)*%
X167132000Y-68580000D03*
%TD*%
D21*
%TO.P,U10,1,-VIN*%
%TO.N,GND*%
X135937500Y-79337500D03*
D22*
%TO.P,U10,2,+VIN*%
%TO.N,Net-(C22-Pad1)*%
X138477500Y-79337500D03*
%TO.P,U10,3,-VOUT*%
%TO.N,ISOGNDB*%
X141017500Y-79337500D03*
%TO.P,U10,4,+VOUT*%
%TO.N,Net-(L5-Pad1)*%
X143557500Y-79337500D03*
%TD*%
D19*
%TO.P,L2,1*%
%TO.N,+5V*%
X129747500Y-56896000D03*
%TO.P,L2,2*%
%TO.N,Net-(C21-Pad1)*%
X131872500Y-56896000D03*
%TD*%
D23*
%TO.P,C22,1*%
%TO.N,Net-(C22-Pad1)*%
X131777000Y-74422000D03*
%TO.P,C22,2*%
%TO.N,GND*%
X128827000Y-74422000D03*
%TD*%
D20*
%TO.P,R33,1*%
%TO.N,ISO5VB*%
X153463500Y-79276000D03*
%TO.P,R33,2*%
%TO.N,ISOGNDB*%
X153463500Y-76351000D03*
%TD*%
D13*
%TO.P,R18,1*%
%TO.N,+5V*%
X127047500Y-82489000D03*
%TO.P,R18,2*%
%TO.N,Rx-B*%
X127047500Y-84314000D03*
%TD*%
D12*
%TO.P,R38,1*%
%TO.N,Net-(J14-Pad1)*%
X149098000Y-91590500D03*
%TO.P,R38,2*%
%TO.N,Net-(R30-Pad2)*%
X149098000Y-89765500D03*
%TD*%
D24*
%TO.P,U7,1*%
%TO.N,N/C*%
X126812000Y-69680000D03*
%TO.P,U7,2*%
%TO.N,Rx-B*%
X127762000Y-69680000D03*
%TO.P,U7,3,GND*%
%TO.N,GND*%
X128712000Y-69680000D03*
%TO.P,U7,4*%
%TO.N,Net-(R23-Pad2)*%
X128712000Y-67480000D03*
%TO.P,U7,5,VCC*%
%TO.N,+5V*%
X126812000Y-67480000D03*
%TD*%
D25*
%TO.P,C25,1*%
%TO.N,ISOGNDA*%
X150622000Y-59133000D03*
%TO.P,C25,2*%
X150622000Y-56183000D03*
%TD*%
D12*
%TO.P,R34,1*%
%TO.N,Net-(J10-Pad1)*%
X149098000Y-67968500D03*
%TO.P,R34,2*%
%TO.N,Net-(R26-Pad2)*%
X149098000Y-66143500D03*
%TD*%
D18*
%TO.P,C27,1*%
%TO.N,ISOGNDA*%
X149352000Y-62738000D03*
%TO.P,C27,2*%
X149352000Y-64288000D03*
%TD*%
D13*
%TO.P,R24,1*%
%TO.N,+5V*%
X122936000Y-65889500D03*
%TO.P,R24,2*%
%TO.N,Net-(R24-Pad2)*%
X122936000Y-67714500D03*
%TD*%
D20*
%TO.P,R40,1*%
%TO.N,ISOGNDA*%
X156718000Y-59120500D03*
%TO.P,R40,2*%
X156718000Y-56195500D03*
%TD*%
D18*
%TO.P,C20,2*%
%TO.N,GND*%
X132889500Y-83922500D03*
%TO.P,C20,1*%
%TO.N,+5V*%
X132889500Y-82372500D03*
%TD*%
D26*
%TO.P,C15,1*%
%TO.N,+5V*%
X128827000Y-59436000D03*
%TO.P,C15,2*%
%TO.N,GND*%
X131777000Y-59436000D03*
%TD*%
D27*
%TO.P,R26,1*%
%TO.N,Net-(D11-Pad2)*%
X154116500Y-66040000D03*
%TO.P,R26,2*%
%TO.N,Net-(R26-Pad2)*%
X151191500Y-66040000D03*
%TD*%
D12*
%TO.P,R35,1*%
%TO.N,Net-(J11-Pad1)*%
X149098000Y-71778500D03*
%TO.P,R35,2*%
%TO.N,Net-(R27-Pad2)*%
X149098000Y-69953500D03*
%TD*%
D28*
%TO.P,R20,1*%
%TO.N,Tx-B*%
X132786000Y-89751500D03*
%TO.P,R20,2*%
%TO.N,Rx-A*%
X130961000Y-89751500D03*
%TD*%
D18*
%TO.P,C28,1*%
%TO.N,ISO5VB*%
X149399500Y-82626500D03*
%TO.P,C28,2*%
%TO.N,ISOGNDB*%
X149399500Y-84176500D03*
%TD*%
%TO.P,C19,2*%
%TO.N,GND*%
X132842000Y-64034000D03*
%TO.P,C19,1*%
%TO.N,+5V*%
X132842000Y-62484000D03*
%TD*%
D27*
%TO.P,R29,2*%
%TO.N,Net-(R29-Pad2)*%
X151191500Y-85852000D03*
%TO.P,R29,1*%
%TO.N,Net-(J9-Pad2)*%
X154116500Y-85852000D03*
%TD*%
D18*
%TO.P,C16,2*%
%TO.N,GND*%
X130810000Y-64021000D03*
%TO.P,C16,1*%
%TO.N,+5V*%
X130810000Y-62471000D03*
%TD*%
D29*
%TO.P,R36,1*%
%TO.N,Net-(J12-Pad1)*%
X160528000Y-62037500D03*
%TO.P,R36,2*%
%TO.N,Net-(D11-Pad2)*%
X160528000Y-64962500D03*
%TD*%
D26*
%TO.P,C17,1*%
%TO.N,+5V*%
X128827000Y-79502000D03*
%TO.P,C17,2*%
%TO.N,GND*%
X131777000Y-79502000D03*
%TD*%
D20*
%TO.P,R32,1*%
%TO.N,ISOGNDA*%
X153670000Y-59120500D03*
%TO.P,R32,2*%
X153670000Y-56195500D03*
%TD*%
D25*
%TO.P,C26,1*%
%TO.N,ISO5VB*%
X150415500Y-79288500D03*
%TO.P,C26,2*%
%TO.N,ISOGNDB*%
X150415500Y-76338500D03*
%TD*%
D28*
%TO.P,R23,1*%
%TO.N,DE-A*%
X132738500Y-67310000D03*
%TO.P,R23,2*%
%TO.N,Net-(R23-Pad2)*%
X130913500Y-67310000D03*
%TD*%
D20*
%TO.P,R41,1*%
%TO.N,ISO5VB*%
X156511500Y-79276000D03*
%TO.P,R41,2*%
%TO.N,ISOGNDB*%
X156511500Y-76351000D03*
%TD*%
D30*
%TO.P,L4,2*%
%TO.N,ISOGNDA*%
X147320000Y-57103500D03*
%TO.P,L4,1*%
%TO.N,Net-(L4-Pad1)*%
X147320000Y-59228500D03*
%TD*%
D27*
%TO.P,R27,1*%
%TO.N,Net-(D11-Pad1)*%
X154116500Y-68580000D03*
%TO.P,R27,2*%
%TO.N,Net-(R27-Pad2)*%
X151191500Y-68580000D03*
%TD*%
D29*
%TO.P,R39,1*%
%TO.N,Net-(J15-Pad1)*%
X160528000Y-81849500D03*
%TO.P,R39,2*%
%TO.N,Net-(J9-Pad2)*%
X160528000Y-84774500D03*
%TD*%
D31*
%TO.P,D11,1,A1*%
%TO.N,Net-(D11-Pad1)*%
X157972000Y-68260000D03*
%TO.P,D11,2,A2*%
%TO.N,Net-(D11-Pad2)*%
X157972000Y-66360000D03*
%TO.P,D11,3,common*%
%TO.N,ISOGNDA*%
X155972000Y-67310000D03*
%TD*%
D30*
%TO.P,L5,1*%
%TO.N,Net-(L5-Pad1)*%
X147367500Y-79384000D03*
%TO.P,L5,2*%
%TO.N,ISO5VB*%
X147367500Y-77259000D03*
%TD*%
D13*
%TO.P,R17,1*%
%TO.N,+5V*%
X127000000Y-62587500D03*
%TO.P,R17,2*%
%TO.N,Rx-A*%
X127000000Y-64412500D03*
%TD*%
D23*
%TO.P,C21,1*%
%TO.N,Net-(C21-Pad1)*%
X131777000Y-54356000D03*
%TO.P,C21,2*%
%TO.N,GND*%
X128827000Y-54356000D03*
%TD*%
D24*
%TO.P,U6,1*%
%TO.N,N/C*%
X126605500Y-89581500D03*
%TO.P,U6,2*%
%TO.N,Rx-A*%
X127555500Y-89581500D03*
%TO.P,U6,3,GND*%
%TO.N,GND*%
X128505500Y-89581500D03*
%TO.P,U6,4*%
%TO.N,Net-(R22-Pad2)*%
X128505500Y-87381500D03*
%TO.P,U6,5,VCC*%
%TO.N,+5V*%
X126605500Y-87381500D03*
%TD*%
D31*
%TO.P,D12,3,common*%
%TO.N,ISOGNDB*%
X155972000Y-87122000D03*
%TO.P,D12,2,A2*%
%TO.N,Net-(J9-Pad2)*%
X157972000Y-86172000D03*
%TO.P,D12,1,A1*%
%TO.N,Net-(J9-Pad3)*%
X157972000Y-88072000D03*
%TD*%
D28*
%TO.P,R22,1*%
%TO.N,DE-B*%
X132786000Y-87211500D03*
%TO.P,R22,2*%
%TO.N,Net-(R22-Pad2)*%
X130961000Y-87211500D03*
%TD*%
D12*
%TO.P,R37,1*%
%TO.N,Net-(J13-Pad1)*%
X149098000Y-87780500D03*
%TO.P,R37,2*%
%TO.N,Net-(R29-Pad2)*%
X149098000Y-85955500D03*
%TD*%
D20*
%TO.P,R28,1*%
%TO.N,Net-(R28-Pad1)*%
X160528000Y-59120500D03*
%TO.P,R28,2*%
%TO.N,ISOGNDA*%
X160528000Y-56195500D03*
%TD*%
D32*
%TO.P,U11,1,VDD1*%
%TO.N,+5V*%
X135351500Y-82766500D03*
%TO.P,U11,2,GND1*%
%TO.N,GND*%
X135351500Y-84036500D03*
%TO.P,U11,3,RxD*%
%TO.N,Rx-B*%
X135351500Y-85306500D03*
%TO.P,U11,4,~{RE}*%
%TO.N,DE-B*%
X135351500Y-86576500D03*
%TO.P,U11,5,DE*%
X135351500Y-87846500D03*
%TO.P,U11,6,TxD*%
%TO.N,Tx-B*%
X135351500Y-89116500D03*
%TO.P,U11,7,PV*%
%TO.N,Net-(R6-Pad2)*%
X135351500Y-90386500D03*
%TO.P,U11,8,GND1*%
%TO.N,GND*%
X135351500Y-91656500D03*
%TO.P,U11,9,GND2*%
%TO.N,ISOGNDB*%
X144651500Y-91656500D03*
%TO.P,U11,10,NC*%
%TO.N,unconnected-(U11-Pad10)*%
X144651500Y-90386500D03*
%TO.P,U11,11,NC*%
%TO.N,unconnected-(U11-Pad11)*%
X144651500Y-89116500D03*
%TO.P,U11,12,A*%
%TO.N,Net-(R30-Pad2)*%
X144651500Y-87846500D03*
%TO.P,U11,13,B*%
%TO.N,Net-(R29-Pad2)*%
X144651500Y-86576500D03*
%TO.P,U11,14,NC*%
%TO.N,unconnected-(U11-Pad14)*%
X144651500Y-85306500D03*
%TO.P,U11,15,GND2*%
%TO.N,ISOGNDB*%
X144651500Y-84036500D03*
%TO.P,U11,16,VDD2*%
%TO.N,ISO5VB*%
X144651500Y-82766500D03*
%TD*%
D21*
%TO.P,U8,1,-VIN*%
%TO.N,GND*%
X135937500Y-59271500D03*
D22*
%TO.P,U8,2,+VIN*%
%TO.N,Net-(C21-Pad1)*%
X138477500Y-59271500D03*
%TO.P,U8,3,-VOUT*%
%TO.N,ISOGNDA*%
X141017500Y-59271500D03*
%TO.P,U8,4,+VOUT*%
%TO.N,Net-(L4-Pad1)*%
X143557500Y-59271500D03*
%TD*%
D17*
%TO.P,J9,1,Pin_1*%
%TO.N,Net-(J9-Pad1)*%
X167132000Y-78486000D03*
D16*
%TO.P,J9,2,Pin_2*%
%TO.N,Net-(J9-Pad2)*%
X167132000Y-83566000D03*
%TO.P,J9,3,Pin_3*%
%TO.N,Net-(J9-Pad3)*%
X167132000Y-88646000D03*
%TD*%
D32*
%TO.P,U9,1,VDD1*%
%TO.N,+5V*%
X135304000Y-62865000D03*
%TO.P,U9,2,GND1*%
%TO.N,GND*%
X135304000Y-64135000D03*
%TO.P,U9,3,RxD*%
%TO.N,Rx-A*%
X135304000Y-65405000D03*
%TO.P,U9,4,~{RE}*%
%TO.N,DE-A*%
X135304000Y-66675000D03*
%TO.P,U9,5,DE*%
X135304000Y-67945000D03*
%TO.P,U9,6,TxD*%
%TO.N,Tx-A*%
X135304000Y-69215000D03*
%TO.P,U9,7,PV*%
%TO.N,Net-(R24-Pad2)*%
X135304000Y-70485000D03*
%TO.P,U9,8,GND1*%
%TO.N,GND*%
X135304000Y-71755000D03*
%TO.P,U9,9,GND2*%
%TO.N,ISOGNDA*%
X144604000Y-71755000D03*
%TO.P,U9,10,NC*%
%TO.N,unconnected-(U9-Pad10)*%
X144604000Y-70485000D03*
%TO.P,U9,11,NC*%
%TO.N,unconnected-(U9-Pad11)*%
X144604000Y-69215000D03*
%TO.P,U9,12,A*%
%TO.N,Net-(R27-Pad2)*%
X144604000Y-67945000D03*
%TO.P,U9,13,B*%
%TO.N,Net-(R26-Pad2)*%
X144604000Y-66675000D03*
%TO.P,U9,14,NC*%
%TO.N,unconnected-(U9-Pad14)*%
X144604000Y-65405000D03*
%TO.P,U9,15,GND2*%
%TO.N,ISOGNDA*%
X144604000Y-64135000D03*
%TO.P,U9,16,VDD2*%
X144604000Y-62865000D03*
%TD*%
D28*
%TO.P,R21,1*%
%TO.N,Tx-A*%
X132738500Y-69596000D03*
%TO.P,R21,2*%
%TO.N,Rx-B*%
X130913500Y-69596000D03*
%TD*%
D27*
%TO.P,R30,2*%
%TO.N,Net-(R30-Pad2)*%
X151191500Y-88392000D03*
%TO.P,R30,1*%
%TO.N,Net-(J9-Pad3)*%
X154116500Y-88392000D03*
%TD*%
D18*
%TO.P,C23,1*%
%TO.N,ISOGNDA*%
X147320000Y-62725000D03*
%TO.P,C23,2*%
X147320000Y-64275000D03*
%TD*%
%TO.P,C24,1*%
%TO.N,ISO5VB*%
X147367500Y-82626500D03*
%TO.P,C24,2*%
%TO.N,ISOGNDB*%
X147367500Y-84176500D03*
%TD*%
D33*
%TO.N,Net-(J10-Pad1)*%
X147828000Y-67818000D03*
%TO.N,Net-(J12-Pad1)*%
X162560000Y-62484000D03*
%TO.N,ISOGNDA*%
X158811500Y-56195500D03*
X156972000Y-67310000D03*
%TO.N,Net-(J15-Pad1)*%
X162560000Y-82550000D03*
%TO.N,Net-(J13-Pad1)*%
X147828000Y-87630000D03*
%TO.N,ISOGNDB*%
X158496000Y-76200000D03*
X156972000Y-87122000D03*
%TO.N,GND*%
X121158000Y-79756000D03*
X120904000Y-59944000D03*
X118110000Y-55118000D03*
%TO.N,+5V*%
X124206000Y-54864000D03*
%TO.N,ISOGNDB*%
X146558000Y-91694000D03*
X150876000Y-84074000D03*
%TO.N,ISO5VB*%
X150415500Y-81610500D03*
X148847500Y-77720500D03*
X145034000Y-77216000D03*
%TO.N,ISOGNDB*%
X156511500Y-75231500D03*
X153416000Y-75184000D03*
X150368000Y-75184000D03*
%TO.N,GND*%
X121412000Y-71628000D03*
X121666000Y-91694000D03*
X135382000Y-73152000D03*
X135382000Y-92964000D03*
%TO.N,+5V*%
X125476000Y-87376000D03*
%TO.N,GND*%
X129540000Y-88900000D03*
%TO.N,DE-B*%
X126492000Y-85852000D03*
%TO.N,GND*%
X129540000Y-83820000D03*
%TO.N,+5V*%
X129540000Y-82296000D03*
%TO.N,Rx-B*%
X129032000Y-85344000D03*
%TO.N,+5V*%
X124968000Y-67310000D03*
%TO.N,GND*%
X129540000Y-68834000D03*
%TO.N,Rx-B*%
X128524000Y-71120000D03*
X133620688Y-50816688D03*
%TO.N,GND*%
X127254000Y-74422000D03*
%TO.N,+5V*%
X128270000Y-76962000D03*
%TO.N,Rx-A*%
X131826000Y-88646000D03*
%TO.N,Tx-B*%
X131826000Y-91186000D03*
X143764000Y-49650500D03*
%TO.N,GND*%
X127254000Y-54356000D03*
%TO.N,+5V*%
X128270000Y-56896000D03*
%TO.N,DE-A*%
X127254000Y-66040000D03*
%TO.N,+5V*%
X129794000Y-62484000D03*
%TO.N,GND*%
X129794000Y-64008000D03*
%TO.N,ISOGNDA*%
X149098000Y-57912000D03*
X145034000Y-57150000D03*
X150622000Y-61468000D03*
%TO.N,Tx-A*%
X136398000Y-52578000D03*
%TO.N,Rx-A*%
X135289312Y-52485312D03*
X146599500Y-51349500D03*
X131826000Y-65024000D03*
%TO.N,Tx-A*%
X132842000Y-71120000D03*
%TO.N,ISOGNDA*%
X146939000Y-71755000D03*
X150622000Y-64262000D03*
X143510000Y-55626000D03*
X156718000Y-54864000D03*
X153670000Y-54864000D03*
X150622000Y-54864000D03*
%TD*%
D34*
%TO.N,Tx-B*%
X132842000Y-90170000D02*
X132842000Y-89807500D01*
X131826000Y-91186000D02*
X132842000Y-90170000D01*
X132842000Y-89807500D02*
X132786000Y-89751500D01*
D35*
%TO.N,Net-(J15-Pad1)*%
X161859500Y-81849500D02*
X160528000Y-81849500D01*
X162560000Y-82550000D02*
X161859500Y-81849500D01*
D34*
%TO.N,Net-(J14-Pad1)*%
X149201500Y-91694000D02*
X149098000Y-91590500D01*
X150876000Y-91694000D02*
X149201500Y-91694000D01*
X151130000Y-91440000D02*
X150876000Y-91694000D01*
X152146000Y-91440000D02*
X151130000Y-91440000D01*
%TO.N,GND*%
X120904000Y-59944000D02*
X122252500Y-59944000D01*
%TO.N,Net-(D3-Pad2)*%
X122277500Y-61794000D02*
X124127500Y-59944000D01*
X122277500Y-62484000D02*
X122277500Y-61794000D01*
%TO.N,GND*%
X121158000Y-79756000D02*
X122506500Y-79756000D01*
%TO.N,Net-(D4-Pad2)*%
X122531500Y-82296000D02*
X122531500Y-81606000D01*
X122531500Y-81606000D02*
X124381500Y-79756000D01*
D36*
%TO.N,+12V*%
X120904000Y-94996000D02*
X125222000Y-94996000D01*
X112014000Y-79502000D02*
X112014000Y-86106000D01*
X112014000Y-86106000D02*
X120904000Y-94996000D01*
D34*
%TO.N,Rx-A*%
X136425124Y-51349500D02*
X135289312Y-52485312D01*
X146599500Y-51349500D02*
X136425124Y-51349500D01*
D35*
%TO.N,Net-(J10-Pad1)*%
X148947500Y-67818000D02*
X149098000Y-67968500D01*
X147828000Y-67818000D02*
X148947500Y-67818000D01*
%TO.N,Net-(J12-Pad1)*%
X162113500Y-62037500D02*
X162560000Y-62484000D01*
X160528000Y-62037500D02*
X162113500Y-62037500D01*
%TO.N,Net-(R28-Pad1)*%
X166431500Y-59120500D02*
X167132000Y-58420000D01*
X160528000Y-59120500D02*
X166431500Y-59120500D01*
%TO.N,ISOGNDA*%
X160528000Y-56195500D02*
X158811500Y-56195500D01*
D34*
X155972000Y-67310000D02*
X156972000Y-67310000D01*
%TO.N,Net-(J11-Pad1)*%
X151384000Y-71882000D02*
X149201500Y-71882000D01*
X149201500Y-71882000D02*
X149098000Y-71778500D01*
X151384000Y-71628000D02*
X151384000Y-71882000D01*
X152141000Y-71628000D02*
X151384000Y-71628000D01*
D35*
%TO.N,Net-(D11-Pad1)*%
X166629000Y-68077000D02*
X167132000Y-68580000D01*
X160782000Y-68077000D02*
X166629000Y-68077000D01*
%TO.N,Net-(D11-Pad2)*%
X157972000Y-66056000D02*
X157988000Y-66040000D01*
X157972000Y-66360000D02*
X157972000Y-66056000D01*
X157988000Y-66040000D02*
X159450500Y-66040000D01*
X154116500Y-66040000D02*
X157988000Y-66040000D01*
%TO.N,Net-(D11-Pad1)*%
X157972000Y-68260000D02*
X157972000Y-68310000D01*
X158242000Y-68580000D02*
X160279000Y-68580000D01*
X157972000Y-68310000D02*
X158242000Y-68580000D01*
X154116500Y-68580000D02*
X158242000Y-68580000D01*
X160279000Y-68580000D02*
X160782000Y-68077000D01*
%TO.N,Net-(R27-Pad2)*%
X149818000Y-69953500D02*
X151191500Y-68580000D01*
X149098000Y-69953500D02*
X149818000Y-69953500D01*
X147931500Y-69953500D02*
X149098000Y-69953500D01*
X144604000Y-67945000D02*
X145923000Y-67945000D01*
X145923000Y-67945000D02*
X147931500Y-69953500D01*
%TO.N,Net-(D11-Pad2)*%
X160528000Y-64962500D02*
X165669500Y-64962500D01*
X165669500Y-64962500D02*
X167132000Y-63500000D01*
X159450500Y-66040000D02*
X160528000Y-64962500D01*
%TO.N,Net-(R26-Pad2)*%
X151088000Y-66143500D02*
X151191500Y-66040000D01*
X149098000Y-66143500D02*
X151088000Y-66143500D01*
X147193000Y-66675000D02*
X147724500Y-66143500D01*
X144604000Y-66675000D02*
X147193000Y-66675000D01*
X147724500Y-66143500D02*
X149098000Y-66143500D01*
%TO.N,Net-(R30-Pad2)*%
X149818000Y-89765500D02*
X151191500Y-88392000D01*
X149098000Y-89765500D02*
X149818000Y-89765500D01*
D34*
%TO.N,Net-(J13-Pad1)*%
X148947500Y-87630000D02*
X149098000Y-87780500D01*
X147828000Y-87630000D02*
X148947500Y-87630000D01*
D35*
%TO.N,Net-(J9-Pad1)*%
X166431500Y-79186500D02*
X167132000Y-78486000D01*
X160528000Y-79186500D02*
X166431500Y-79186500D01*
%TO.N,ISOGNDB*%
X158557500Y-76261500D02*
X158496000Y-76200000D01*
X160528000Y-76261500D02*
X158557500Y-76261500D01*
X155972000Y-87122000D02*
X156972000Y-87122000D01*
%TO.N,Net-(J9-Pad2)*%
X157972000Y-86172000D02*
X157972000Y-86122000D01*
X158242000Y-85852000D02*
X159450500Y-85852000D01*
X157972000Y-86122000D02*
X158242000Y-85852000D01*
X154116500Y-85852000D02*
X158242000Y-85852000D01*
%TO.N,Net-(J9-Pad3)*%
X166375000Y-87889000D02*
X167132000Y-88646000D01*
X160782000Y-87889000D02*
X166375000Y-87889000D01*
X160599000Y-88072000D02*
X160782000Y-87889000D01*
X157972000Y-88072000D02*
X160599000Y-88072000D01*
X154116500Y-88392000D02*
X157652000Y-88392000D01*
X157652000Y-88392000D02*
X157972000Y-88072000D01*
%TO.N,Net-(J9-Pad2)*%
X165923500Y-84774500D02*
X167132000Y-83566000D01*
X160528000Y-84774500D02*
X165923500Y-84774500D01*
X159450500Y-85852000D02*
X160528000Y-84774500D01*
%TO.N,Net-(R29-Pad2)*%
X149098000Y-85955500D02*
X151041000Y-85955500D01*
%TO.N,Net-(R30-Pad2)*%
X145758500Y-87846500D02*
X147677500Y-89765500D01*
X147677500Y-89765500D02*
X149098000Y-89765500D01*
X144651500Y-87846500D02*
X145758500Y-87846500D01*
%TO.N,Net-(R29-Pad2)*%
X147828000Y-85852000D02*
X148994500Y-85852000D01*
X147103500Y-86576500D02*
X147828000Y-85852000D01*
X144651500Y-86576500D02*
X147103500Y-86576500D01*
X148994500Y-85852000D02*
X149098000Y-85955500D01*
D37*
%TO.N,+12V*%
X145720000Y-96190000D02*
X145720000Y-97460000D01*
X144526000Y-94996000D02*
X145720000Y-96190000D01*
X125222000Y-94996000D02*
X144526000Y-94996000D01*
D34*
%TO.N,DE-B*%
X125730000Y-85852000D02*
X126492000Y-85852000D01*
X124356500Y-84478500D02*
X125730000Y-85852000D01*
X124356500Y-82296000D02*
X124356500Y-84478500D01*
%TO.N,DE-A*%
X125730000Y-66040000D02*
X127254000Y-66040000D01*
X124102500Y-64412500D02*
X125730000Y-66040000D01*
X124102500Y-62484000D02*
X124102500Y-64412500D01*
%TO.N,GND*%
X118188500Y-55196500D02*
X118110000Y-55118000D01*
X118188500Y-56642000D02*
X118188500Y-55196500D01*
X118188500Y-55039500D02*
X118110000Y-55118000D01*
X118188500Y-53594000D02*
X118188500Y-55039500D01*
%TO.N,Net-(D2-Pad2)*%
X120063500Y-56642000D02*
X122277500Y-56642000D01*
%TO.N,Net-(D1-Pad2)*%
X122277500Y-53594000D02*
X120063500Y-53594000D01*
%TO.N,+5V*%
X124102500Y-54760500D02*
X124206000Y-54864000D01*
X124102500Y-53594000D02*
X124102500Y-54760500D01*
%TO.N,LED-1*%
X125222000Y-56642000D02*
X124102500Y-56642000D01*
X125476000Y-52324000D02*
X125476000Y-56388000D01*
X124714000Y-51562000D02*
X125476000Y-52324000D01*
X118618000Y-51562000D02*
X124714000Y-51562000D01*
X117371000Y-50315000D02*
X118618000Y-51562000D01*
X135151000Y-47775000D02*
X117371000Y-47775000D01*
X125476000Y-56388000D02*
X125222000Y-56642000D01*
X136576000Y-49200000D02*
X135151000Y-47775000D01*
X117371000Y-47775000D02*
X117371000Y-50315000D01*
%TO.N,ISOGNDB*%
X146520500Y-91656500D02*
X146558000Y-91694000D01*
X144651500Y-91656500D02*
X146520500Y-91656500D01*
X150773500Y-84176500D02*
X150876000Y-84074000D01*
X149399500Y-84176500D02*
X150773500Y-84176500D01*
X147367500Y-84176500D02*
X149399500Y-84176500D01*
X147227500Y-84036500D02*
X147367500Y-84176500D01*
X144651500Y-84036500D02*
X147227500Y-84036500D01*
%TO.N,ISO5VB*%
X147367500Y-82626500D02*
X144791500Y-82626500D01*
X144791500Y-82626500D02*
X144651500Y-82766500D01*
X149399500Y-82626500D02*
X147367500Y-82626500D01*
D35*
X150415500Y-81610500D02*
X149399500Y-82626500D01*
X150415500Y-79288500D02*
X150415500Y-81610500D01*
X148386000Y-77259000D02*
X150415500Y-79288500D01*
X147367500Y-77259000D02*
X148386000Y-77259000D01*
X145077000Y-77259000D02*
X145034000Y-77216000D01*
X147367500Y-77259000D02*
X145077000Y-77259000D01*
X153463500Y-79276000D02*
X156511500Y-79276000D01*
X153451000Y-79288500D02*
X153463500Y-79276000D01*
X150415500Y-79288500D02*
X153451000Y-79288500D01*
%TO.N,ISOGNDB*%
X156511500Y-76351000D02*
X156511500Y-75231500D01*
X153463500Y-75231500D02*
X153416000Y-75184000D01*
X153463500Y-76351000D02*
X153463500Y-75231500D01*
X150415500Y-75231500D02*
X150368000Y-75184000D01*
X150415500Y-76338500D02*
X150415500Y-75231500D01*
X153463500Y-76351000D02*
X156511500Y-76351000D01*
X153451000Y-76338500D02*
X153463500Y-76351000D01*
X150415500Y-76338500D02*
X153451000Y-76338500D01*
X148982500Y-76338500D02*
X150415500Y-76338500D01*
X144018000Y-75438000D02*
X148082000Y-75438000D01*
X141017500Y-78438500D02*
X144018000Y-75438000D01*
X148082000Y-75438000D02*
X148982500Y-76338500D01*
X141017500Y-79337500D02*
X141017500Y-78438500D01*
%TO.N,Net-(L5-Pad1)*%
X147321000Y-79337500D02*
X147367500Y-79384000D01*
X143557500Y-79337500D02*
X147321000Y-79337500D01*
D34*
%TO.N,Net-(R24-Pad2)*%
X133049472Y-72136000D02*
X126746000Y-72136000D01*
X134700472Y-70485000D02*
X133049472Y-72136000D01*
X135304000Y-70485000D02*
X134700472Y-70485000D01*
X126746000Y-72136000D02*
X124309500Y-69699500D01*
X122936000Y-69699500D02*
X124309500Y-69699500D01*
%TO.N,+5V*%
X123547500Y-65889500D02*
X124968000Y-67310000D01*
X122936000Y-65889500D02*
X123547500Y-65889500D01*
%TO.N,Net-(R24-Pad2)*%
X122936000Y-67714500D02*
X122936000Y-69699500D01*
%TO.N,GND*%
X121515500Y-71524500D02*
X121412000Y-71628000D01*
X122936000Y-71524500D02*
X121515500Y-71524500D01*
%TO.N,Net-(R6-Pad2)*%
X127508000Y-92710000D02*
X124563500Y-89765500D01*
X132334000Y-92710000D02*
X127508000Y-92710000D01*
X134657500Y-90386500D02*
X132334000Y-92710000D01*
X135351500Y-90386500D02*
X134657500Y-90386500D01*
X124563500Y-89765500D02*
X123190000Y-89765500D01*
%TO.N,GND*%
X121769500Y-91590500D02*
X121666000Y-91694000D01*
X123190000Y-91590500D02*
X121769500Y-91590500D01*
%TO.N,Net-(R6-Pad2)*%
X123190000Y-87780500D02*
X123190000Y-89765500D01*
%TO.N,+5V*%
X124055500Y-85955500D02*
X125476000Y-87376000D01*
X123190000Y-85955500D02*
X124055500Y-85955500D01*
%TO.N,DE-B*%
X131636000Y-86061500D02*
X132786000Y-87211500D01*
X129872000Y-86061500D02*
X131636000Y-86061500D01*
X129532000Y-86401500D02*
X129872000Y-86061500D01*
X127041500Y-86401500D02*
X129532000Y-86401500D01*
X126492000Y-85852000D02*
X127041500Y-86401500D01*
%TO.N,+5V*%
X125138000Y-67480000D02*
X126812000Y-67480000D01*
X124968000Y-67310000D02*
X125138000Y-67480000D01*
%TO.N,GND*%
X135304000Y-73074000D02*
X135382000Y-73152000D01*
X135304000Y-71755000D02*
X135304000Y-73074000D01*
X135351500Y-92933500D02*
X135382000Y-92964000D01*
X135351500Y-91656500D02*
X135351500Y-92933500D01*
%TO.N,+5V*%
X125481500Y-87381500D02*
X125476000Y-87376000D01*
X126605500Y-87381500D02*
X125481500Y-87381500D01*
%TO.N,GND*%
X128858500Y-89581500D02*
X129540000Y-88900000D01*
X128505500Y-89581500D02*
X128858500Y-89581500D01*
%TO.N,Rx-A*%
X128016000Y-90678000D02*
X127555500Y-90217500D01*
X127555500Y-90217500D02*
X127555500Y-89581500D01*
X130048000Y-90678000D02*
X128016000Y-90678000D01*
X130961000Y-89765000D02*
X130048000Y-90678000D01*
X130961000Y-89751500D02*
X130961000Y-89765000D01*
%TO.N,Net-(R22-Pad2)*%
X129704500Y-87211500D02*
X129534500Y-87381500D01*
X129534500Y-87381500D02*
X128505500Y-87381500D01*
X130961000Y-87211500D02*
X129704500Y-87211500D01*
%TO.N,DE-B*%
X135351500Y-86576500D02*
X135351500Y-87846500D01*
X133895500Y-86576500D02*
X135351500Y-86576500D01*
X133260500Y-87211500D02*
X133895500Y-86576500D01*
X132786000Y-87211500D02*
X133260500Y-87211500D01*
%TO.N,GND*%
X129642500Y-83922500D02*
X129540000Y-83820000D01*
X131111500Y-83922500D02*
X129642500Y-83922500D01*
X132889500Y-83922500D02*
X131111500Y-83922500D01*
X135351500Y-84036500D02*
X133003500Y-84036500D01*
X133003500Y-84036500D02*
X132889500Y-83922500D01*
%TO.N,Rx-B*%
X135314000Y-85344000D02*
X135351500Y-85306500D01*
X129032000Y-85344000D02*
X135314000Y-85344000D01*
X128002000Y-84314000D02*
X129032000Y-85344000D01*
X127047500Y-84314000D02*
X128002000Y-84314000D01*
%TO.N,+5V*%
X129347000Y-82489000D02*
X129540000Y-82296000D01*
X127047500Y-82489000D02*
X129347000Y-82489000D01*
X129616500Y-82372500D02*
X129540000Y-82296000D01*
X131111500Y-82372500D02*
X129616500Y-82372500D01*
X132889500Y-82372500D02*
X131111500Y-82372500D01*
X135351500Y-82766500D02*
X133283500Y-82766500D01*
X133283500Y-82766500D02*
X132889500Y-82372500D01*
D38*
%TO.N,GND*%
X128712000Y-69662000D02*
X129540000Y-68834000D01*
X128712000Y-69680000D02*
X128712000Y-69662000D01*
D34*
%TO.N,Rx-B*%
X129389500Y-71120000D02*
X130913500Y-69596000D01*
X128524000Y-71120000D02*
X129389500Y-71120000D01*
X127762000Y-70358000D02*
X127762000Y-69680000D01*
X128524000Y-71120000D02*
X127762000Y-70358000D01*
X133604000Y-50800000D02*
X133620688Y-50816688D01*
X133904000Y-50500000D02*
X133604000Y-50800000D01*
X147020000Y-50500000D02*
X133904000Y-50500000D01*
%TO.N,DE-A*%
X127254000Y-66040000D02*
X132080000Y-66040000D01*
X132738500Y-66698500D02*
X132738500Y-67310000D01*
X132080000Y-66040000D02*
X132738500Y-66698500D01*
D35*
%TO.N,GND*%
X128827000Y-74422000D02*
X127254000Y-74422000D01*
%TO.N,+5V*%
X128827000Y-79502000D02*
X128827000Y-77167000D01*
X128827000Y-77167000D02*
X129032000Y-76962000D01*
X129032000Y-76962000D02*
X128270000Y-76962000D01*
X129747500Y-76962000D02*
X129032000Y-76962000D01*
%TO.N,GND*%
X135773000Y-79502000D02*
X135937500Y-79337500D01*
X131777000Y-79502000D02*
X135773000Y-79502000D01*
%TO.N,Net-(C22-Pad1)*%
X137668000Y-76962000D02*
X138477500Y-77771500D01*
X138477500Y-77771500D02*
X138477500Y-79337500D01*
X131872500Y-76962000D02*
X137668000Y-76962000D01*
X131777000Y-76866500D02*
X131872500Y-76962000D01*
X131777000Y-74422000D02*
X131777000Y-76866500D01*
D34*
%TO.N,Rx-A*%
X130961000Y-89003000D02*
X130961000Y-89751500D01*
X131826000Y-88646000D02*
X131318000Y-88646000D01*
X131318000Y-88646000D02*
X130961000Y-89003000D01*
%TO.N,Tx-B*%
X133421000Y-89116500D02*
X135351500Y-89116500D01*
X132786000Y-89751500D02*
X133421000Y-89116500D01*
X143764000Y-49784000D02*
X143764000Y-49650500D01*
X144420000Y-47900000D02*
X143764000Y-48556000D01*
X172360000Y-47900000D02*
X144420000Y-47900000D01*
X173660000Y-49200000D02*
X172360000Y-47900000D01*
X143764000Y-48556000D02*
X143764000Y-49784000D01*
D35*
%TO.N,GND*%
X128827000Y-54356000D02*
X127254000Y-54356000D01*
%TO.N,+5V*%
X128827000Y-57453000D02*
X128270000Y-56896000D01*
X128827000Y-59436000D02*
X128827000Y-57453000D01*
X129747500Y-56896000D02*
X128270000Y-56896000D01*
%TO.N,Net-(C21-Pad1)*%
X137668000Y-56896000D02*
X138477500Y-57705500D01*
X138477500Y-57705500D02*
X138477500Y-59271500D01*
X131872500Y-56896000D02*
X137668000Y-56896000D01*
X131777000Y-56800500D02*
X131872500Y-56896000D01*
X131777000Y-54356000D02*
X131777000Y-56800500D01*
%TO.N,GND*%
X135773000Y-59436000D02*
X135937500Y-59271500D01*
X131777000Y-59436000D02*
X135773000Y-59436000D01*
D34*
%TO.N,Net-(R23-Pad2)*%
X128882000Y-67310000D02*
X128712000Y-67480000D01*
X130913500Y-67310000D02*
X128882000Y-67310000D01*
%TO.N,DE-A*%
X135304000Y-66675000D02*
X135304000Y-67945000D01*
X133223000Y-66675000D02*
X135304000Y-66675000D01*
X132738500Y-67159500D02*
X133223000Y-66675000D01*
X132738500Y-67310000D02*
X132738500Y-67159500D01*
%TO.N,+5V*%
X129690500Y-62587500D02*
X129794000Y-62484000D01*
X127000000Y-62587500D02*
X129690500Y-62587500D01*
X129807000Y-62471000D02*
X129794000Y-62484000D01*
X130810000Y-62471000D02*
X129807000Y-62471000D01*
X132842000Y-62484000D02*
X130823000Y-62484000D01*
X130823000Y-62484000D02*
X130810000Y-62471000D01*
X134112000Y-62484000D02*
X132842000Y-62484000D01*
X134493000Y-62865000D02*
X134112000Y-62484000D01*
X135304000Y-62865000D02*
X134493000Y-62865000D01*
%TO.N,GND*%
X129807000Y-64021000D02*
X129794000Y-64008000D01*
X130810000Y-64021000D02*
X129807000Y-64021000D01*
X130823000Y-64034000D02*
X130810000Y-64021000D01*
X132842000Y-64034000D02*
X130823000Y-64034000D01*
X132868000Y-64008000D02*
X132842000Y-64034000D01*
X133985000Y-64135000D02*
X133858000Y-64008000D01*
X133858000Y-64008000D02*
X132868000Y-64008000D01*
X135304000Y-64135000D02*
X133985000Y-64135000D01*
%TO.N,Rx-A*%
X133731000Y-65405000D02*
X135304000Y-65405000D01*
X133350000Y-65024000D02*
X133731000Y-65405000D01*
X131826000Y-65024000D02*
X133350000Y-65024000D01*
X131826000Y-65024000D02*
X127611500Y-65024000D01*
X127611500Y-65024000D02*
X127000000Y-64412500D01*
%TO.N,Tx-A*%
X136398000Y-52578000D02*
X136776500Y-52199500D01*
X136776500Y-52199500D02*
X175740500Y-52199500D01*
X175740500Y-52199500D02*
X178740000Y-49200000D01*
D35*
%TO.N,ISOGNDA*%
X148289500Y-57103500D02*
X149098000Y-57912000D01*
X145080500Y-57103500D02*
X145034000Y-57150000D01*
X147320000Y-57103500D02*
X145080500Y-57103500D01*
D34*
X150622000Y-59133000D02*
X150622000Y-61468000D01*
%TO.N,Tx-A*%
X133731000Y-69215000D02*
X135304000Y-69215000D01*
X133350000Y-69596000D02*
X133731000Y-69215000D01*
X132738500Y-69596000D02*
X133350000Y-69596000D01*
X132842000Y-69699500D02*
X132738500Y-69596000D01*
X132842000Y-71120000D02*
X132842000Y-69699500D01*
D35*
%TO.N,ISOGNDA*%
X141017500Y-58118500D02*
X143510000Y-55626000D01*
X141017500Y-59271500D02*
X141017500Y-58118500D01*
D34*
%TO.N,Rx-B*%
X147020000Y-50500000D02*
X145720000Y-49200000D01*
X174900000Y-50500000D02*
X147020000Y-50500000D01*
X176200000Y-49200000D02*
X174900000Y-50500000D01*
%TO.N,ISOGNDA*%
X144604000Y-71755000D02*
X146939000Y-71755000D01*
X150596000Y-64288000D02*
X150622000Y-64262000D01*
X149352000Y-64288000D02*
X150596000Y-64288000D01*
X149339000Y-64275000D02*
X149352000Y-64288000D01*
X147320000Y-64275000D02*
X149339000Y-64275000D01*
X146317000Y-64275000D02*
X147320000Y-64275000D01*
X144604000Y-64135000D02*
X146177000Y-64135000D01*
X146177000Y-64135000D02*
X146317000Y-64275000D01*
X149352000Y-62738000D02*
X150622000Y-61468000D01*
X149339000Y-62725000D02*
X149352000Y-62738000D01*
X147320000Y-62725000D02*
X149339000Y-62725000D01*
X146317000Y-62725000D02*
X147320000Y-62725000D01*
X146177000Y-62865000D02*
X146317000Y-62725000D01*
X144604000Y-62865000D02*
X146177000Y-62865000D01*
D35*
X153670000Y-56195500D02*
X156718000Y-56195500D01*
X153657500Y-56183000D02*
X153670000Y-56195500D01*
X150622000Y-56183000D02*
X153657500Y-56183000D01*
X148590000Y-55626000D02*
X149147000Y-56183000D01*
X149147000Y-56183000D02*
X150622000Y-56183000D01*
X143510000Y-55626000D02*
X148590000Y-55626000D01*
X156718000Y-56195500D02*
X156718000Y-54864000D01*
X153670000Y-56195500D02*
X153670000Y-54864000D01*
X150622000Y-56183000D02*
X150622000Y-54864000D01*
X153670000Y-59120500D02*
X156718000Y-59120500D01*
X153657500Y-59133000D02*
X153670000Y-59120500D01*
X150622000Y-59133000D02*
X153657500Y-59133000D01*
X150319000Y-59133000D02*
X150622000Y-59133000D01*
X148289500Y-57103500D02*
X150319000Y-59133000D01*
X147320000Y-57103500D02*
X148289500Y-57103500D01*
D38*
%TO.N,Net-(L4-Pad1)*%
X147277000Y-59271500D02*
X147320000Y-59228500D01*
D35*
X143557500Y-59271500D02*
X147277000Y-59271500D01*
%TD*%
M02*
