%TF.GenerationSoftware,KiCad,Pcbnew,(6.0.9)*%
%TF.CreationDate,2022-11-14T07:28:00+00:00*%
%TF.ProjectId,mega485,6d656761-3438-4352-9e6b-696361645f70,rev?*%
%TF.SameCoordinates,Original*%
%TF.FileFunction,Copper,L4,Bot*%
%TF.FilePolarity,Positive*%
%FSLAX46Y46*%
G04 Gerber Fmt 4.6, Leading zero omitted, Abs format (unit mm)*
G04 Created by KiCad (PCBNEW (6.0.9)) date 2022-11-14 07:28:00*
%MOMM*%
%LPD*%
G01*
G04 APERTURE LIST*
%TA.AperFunction,ComponentPad*%
%ADD10O,1.700000X1.700000*%
%TD*%
%TA.AperFunction,ComponentPad*%
%ADD11R,1.700000X1.700000*%
%TD*%
%TA.AperFunction,ComponentPad*%
%ADD12C,3.000000*%
%TD*%
%TA.AperFunction,ComponentPad*%
%ADD13R,3.000000X3.000000*%
%TD*%
%TA.AperFunction,ComponentPad*%
%ADD14R,1.500000X2.000000*%
%TD*%
%TA.AperFunction,ComponentPad*%
%ADD15O,1.500000X2.000000*%
%TD*%
%TA.AperFunction,ViaPad*%
%ADD16C,0.800000*%
%TD*%
%TA.AperFunction,Conductor*%
%ADD17C,0.500000*%
%TD*%
%TA.AperFunction,Conductor*%
%ADD18C,0.750000*%
%TD*%
%TA.AperFunction,Conductor*%
%ADD19C,1.000000*%
%TD*%
%TA.AperFunction,Conductor*%
%ADD20C,2.000000*%
%TD*%
G04 APERTURE END LIST*
D10*
%TO.P,J15,2,Pin_2*%
%TO.N,Net-(J9-Pad3)*%
X160782000Y-87889000D03*
D11*
%TO.P,J15,1,Pin_1*%
%TO.N,Net-(J15-Pad1)*%
X160782000Y-90429000D03*
%TD*%
D10*
%TO.P,J14,2,Pin_2*%
%TO.N,ISO5VB*%
X154686000Y-91440000D03*
D11*
%TO.P,J14,1,Pin_1*%
%TO.N,Net-(J14-Pad1)*%
X152146000Y-91440000D03*
%TD*%
%TO.P,J13,1,Pin_1*%
%TO.N,Net-(J13-Pad1)*%
X152903000Y-82550000D03*
D10*
%TO.P,J13,2,Pin_2*%
%TO.N,ISOGNDB*%
X155443000Y-82550000D03*
%TD*%
D11*
%TO.P,J12,1,Pin_1*%
%TO.N,Net-(J12-Pad1)*%
X160782000Y-70617000D03*
D10*
%TO.P,J12,2,Pin_2*%
%TO.N,Net-(D11-Pad1)*%
X160782000Y-68077000D03*
%TD*%
D11*
%TO.P,J11,1,Pin_1*%
%TO.N,Net-(J11-Pad1)*%
X152141000Y-71628000D03*
D10*
%TO.P,J11,2,Pin_2*%
%TO.N,ISOGNDA*%
X154681000Y-71628000D03*
%TD*%
D11*
%TO.P,J10,1,Pin_1*%
%TO.N,Net-(J10-Pad1)*%
X152654000Y-62484000D03*
D10*
%TO.P,J10,2,Pin_2*%
%TO.N,ISOGNDA*%
X155194000Y-62484000D03*
%TD*%
D12*
%TO.P,J16,2,Pin_2*%
%TO.N,GND*%
X112014000Y-74422000D03*
D13*
%TO.P,J16,1,Pin_1*%
%TO.N,+12V*%
X112014000Y-79502000D03*
%TD*%
D11*
%TO.P,J7,1,Pin_1*%
%TO.N,GND*%
X193980000Y-92380000D03*
D10*
%TO.P,J7,2,Pin_2*%
X196520000Y-92380000D03*
%TO.P,J7,3,Pin_3*%
%TO.N,/\u002A52*%
X193980000Y-89840000D03*
%TO.P,J7,4,Pin_4*%
%TO.N,/53*%
X196520000Y-89840000D03*
%TO.P,J7,5,Pin_5*%
%TO.N,/50*%
X193980000Y-87300000D03*
%TO.P,J7,6,Pin_6*%
%TO.N,/51*%
X196520000Y-87300000D03*
%TO.P,J7,7,Pin_7*%
%TO.N,/48*%
X193980000Y-84760000D03*
%TO.P,J7,8,Pin_8*%
%TO.N,/49*%
X196520000Y-84760000D03*
%TO.P,J7,9,Pin_9*%
%TO.N,/\u002A46*%
X193980000Y-82220000D03*
%TO.P,J7,10,Pin_10*%
%TO.N,/47*%
X196520000Y-82220000D03*
%TO.P,J7,11,Pin_11*%
%TO.N,/\u002A44*%
X193980000Y-79680000D03*
%TO.P,J7,12,Pin_12*%
%TO.N,/\u002A45*%
X196520000Y-79680000D03*
%TO.P,J7,13,Pin_13*%
%TO.N,/42*%
X193980000Y-77140000D03*
%TO.P,J7,14,Pin_14*%
%TO.N,/43*%
X196520000Y-77140000D03*
%TO.P,J7,15,Pin_15*%
%TO.N,/40*%
X193980000Y-74600000D03*
%TO.P,J7,16,Pin_16*%
%TO.N,/41*%
X196520000Y-74600000D03*
%TO.P,J7,17,Pin_17*%
%TO.N,/38*%
X193980000Y-72060000D03*
%TO.P,J7,18,Pin_18*%
%TO.N,/39*%
X196520000Y-72060000D03*
%TO.P,J7,19,Pin_19*%
%TO.N,/36*%
X193980000Y-69520000D03*
%TO.P,J7,20,Pin_20*%
%TO.N,/37*%
X196520000Y-69520000D03*
%TO.P,J7,21,Pin_21*%
%TO.N,/34*%
X193980000Y-66980000D03*
%TO.P,J7,22,Pin_22*%
%TO.N,/35*%
X196520000Y-66980000D03*
%TO.P,J7,23,Pin_23*%
%TO.N,/32*%
X193980000Y-64440000D03*
%TO.P,J7,24,Pin_24*%
%TO.N,/33*%
X196520000Y-64440000D03*
%TO.P,J7,25,Pin_25*%
%TO.N,/30*%
X193980000Y-61900000D03*
%TO.P,J7,26,Pin_26*%
%TO.N,/31*%
X196520000Y-61900000D03*
%TO.P,J7,27,Pin_27*%
%TO.N,/28*%
X193980000Y-59360000D03*
%TO.P,J7,28,Pin_28*%
%TO.N,/29*%
X196520000Y-59360000D03*
%TO.P,J7,29,Pin_29*%
%TO.N,/26*%
X193980000Y-56820000D03*
%TO.P,J7,30,Pin_30*%
%TO.N,/27*%
X196520000Y-56820000D03*
%TO.P,J7,31,Pin_31*%
%TO.N,/24*%
X193980000Y-54280000D03*
%TO.P,J7,32,Pin_32*%
%TO.N,/25*%
X196520000Y-54280000D03*
%TO.P,J7,33,Pin_33*%
%TO.N,/22*%
X193980000Y-51740000D03*
%TO.P,J7,34,Pin_34*%
%TO.N,/23*%
X196520000Y-51740000D03*
%TO.P,J7,35,Pin_35*%
%TO.N,+5V*%
X193980000Y-49200000D03*
%TO.P,J7,36,Pin_36*%
X196520000Y-49200000D03*
%TD*%
D11*
%TO.P,J1,1,Pin_1*%
%TO.N,unconnected-(J1-Pad1)*%
X127940000Y-97460000D03*
D10*
%TO.P,J1,2,Pin_2*%
%TO.N,/IOREF*%
X130480000Y-97460000D03*
%TO.P,J1,3,Pin_3*%
%TO.N,A_RESET*%
X133020000Y-97460000D03*
%TO.P,J1,4,Pin_4*%
%TO.N,+3V3*%
X135560000Y-97460000D03*
%TO.P,J1,5,Pin_5*%
%TO.N,+5V*%
X138100000Y-97460000D03*
%TO.P,J1,6,Pin_6*%
%TO.N,GND*%
X140640000Y-97460000D03*
%TO.P,J1,7,Pin_7*%
X143180000Y-97460000D03*
%TO.P,J1,8,Pin_8*%
%TO.N,+12V*%
X145720000Y-97460000D03*
%TD*%
D11*
%TO.P,J3,1,Pin_1*%
%TO.N,/A0*%
X150800000Y-97460000D03*
D10*
%TO.P,J3,2,Pin_2*%
%TO.N,/A1*%
X153340000Y-97460000D03*
%TO.P,J3,3,Pin_3*%
%TO.N,/A2*%
X155880000Y-97460000D03*
%TO.P,J3,4,Pin_4*%
%TO.N,/A3*%
X158420000Y-97460000D03*
%TO.P,J3,5,Pin_5*%
%TO.N,TCK*%
X160960000Y-97460000D03*
%TO.P,J3,6,Pin_6*%
%TO.N,TMS*%
X163500000Y-97460000D03*
%TO.P,J3,7,Pin_7*%
%TO.N,TDO*%
X166040000Y-97460000D03*
%TO.P,J3,8,Pin_8*%
%TO.N,TDI*%
X168580000Y-97460000D03*
%TD*%
D11*
%TO.P,J5,1,Pin_1*%
%TO.N,/A8*%
X173660000Y-97460000D03*
D10*
%TO.P,J5,2,Pin_2*%
%TO.N,/A9*%
X176200000Y-97460000D03*
%TO.P,J5,3,Pin_3*%
%TO.N,/A10*%
X178740000Y-97460000D03*
%TO.P,J5,4,Pin_4*%
%TO.N,/A11*%
X181280000Y-97460000D03*
%TO.P,J5,5,Pin_5*%
%TO.N,/A12*%
X183820000Y-97460000D03*
%TO.P,J5,6,Pin_6*%
%TO.N,/A13*%
X186360000Y-97460000D03*
%TO.P,J5,7,Pin_7*%
%TO.N,/A14*%
X188900000Y-97460000D03*
%TO.P,J5,8,Pin_8*%
%TO.N,/A15*%
X191440000Y-97460000D03*
%TD*%
D11*
%TO.P,J2,1,Pin_1*%
%TO.N,/SCL{slash}21A*%
X118796000Y-49200000D03*
D10*
%TO.P,J2,2,Pin_2*%
%TO.N,/SDA{slash}20A*%
X121336000Y-49200000D03*
%TO.P,J2,3,Pin_3*%
%TO.N,/AREF*%
X123876000Y-49200000D03*
%TO.P,J2,4,Pin_4*%
%TO.N,GND*%
X126416000Y-49200000D03*
%TO.P,J2,5,Pin_5*%
%TO.N,/\u002A13*%
X128956000Y-49200000D03*
%TO.P,J2,6,Pin_6*%
%TO.N,DE-B*%
X131496000Y-49200000D03*
%TO.P,J2,7,Pin_7*%
%TO.N,DE-A*%
X134036000Y-49200000D03*
%TO.P,J2,8,Pin_8*%
%TO.N,LED-1*%
X136576000Y-49200000D03*
%TO.P,J2,9,Pin_9*%
%TO.N,/\u002A9*%
X139116000Y-49200000D03*
%TO.P,J2,10,Pin_10*%
%TO.N,/\u002A8*%
X141656000Y-49200000D03*
%TD*%
D11*
%TO.P,J4,1,Pin_1*%
%TO.N,Rx-B*%
X145720000Y-49200000D03*
D10*
%TO.P,J4,2,Pin_2*%
%TO.N,Rx-A*%
X148260000Y-49200000D03*
%TO.P,J4,3,Pin_3*%
%TO.N,/\u002A5*%
X150800000Y-49200000D03*
%TO.P,J4,4,Pin_4*%
%TO.N,/\u002A4*%
X153340000Y-49200000D03*
%TO.P,J4,5,Pin_5*%
%TO.N,/\u002A3*%
X155880000Y-49200000D03*
%TO.P,J4,6,Pin_6*%
%TO.N,/\u002A2*%
X158420000Y-49200000D03*
%TO.P,J4,7,Pin_7*%
%TO.N,/TX0{slash}1*%
X160960000Y-49200000D03*
%TO.P,J4,8,Pin_8*%
%TO.N,/RX0{slash}0*%
X163500000Y-49200000D03*
%TD*%
D11*
%TO.P,J6,1,Pin_1*%
%TO.N,/TX3{slash}14*%
X168580000Y-49200000D03*
D10*
%TO.P,J6,2,Pin_2*%
%TO.N,/RX3{slash}15*%
X171120000Y-49200000D03*
%TO.P,J6,3,Pin_3*%
%TO.N,Tx-B*%
X173660000Y-49200000D03*
%TO.P,J6,4,Pin_4*%
%TO.N,Rx-B*%
X176200000Y-49200000D03*
%TO.P,J6,5,Pin_5*%
%TO.N,Tx-A*%
X178740000Y-49200000D03*
%TO.P,J6,6,Pin_6*%
%TO.N,Rx-A*%
X181280000Y-49200000D03*
%TO.P,J6,7,Pin_7*%
%TO.N,/SDA{slash}20*%
X183820000Y-49200000D03*
%TO.P,J6,8,Pin_8*%
%TO.N,/SCL{slash}21*%
X186360000Y-49200000D03*
%TD*%
D13*
%TO.P,J8,1,Pin_1*%
%TO.N,Net-(R28-Pad1)*%
X167132000Y-58420000D03*
D12*
%TO.P,J8,2,Pin_2*%
%TO.N,Net-(D11-Pad2)*%
X167132000Y-63500000D03*
%TO.P,J8,3,Pin_3*%
%TO.N,Net-(D11-Pad1)*%
X167132000Y-68580000D03*
%TD*%
D14*
%TO.P,U10,1,-VIN*%
%TO.N,GND*%
X135937500Y-79337500D03*
D15*
%TO.P,U10,2,+VIN*%
%TO.N,Net-(C22-Pad1)*%
X138477500Y-79337500D03*
%TO.P,U10,3,-VOUT*%
%TO.N,ISOGNDB*%
X141017500Y-79337500D03*
%TO.P,U10,4,+VOUT*%
%TO.N,Net-(L5-Pad1)*%
X143557500Y-79337500D03*
%TD*%
D14*
%TO.P,U8,1,-VIN*%
%TO.N,GND*%
X135937500Y-59271500D03*
D15*
%TO.P,U8,2,+VIN*%
%TO.N,Net-(C21-Pad1)*%
X138477500Y-59271500D03*
%TO.P,U8,3,-VOUT*%
%TO.N,ISOGNDA*%
X141017500Y-59271500D03*
%TO.P,U8,4,+VOUT*%
%TO.N,Net-(L4-Pad1)*%
X143557500Y-59271500D03*
%TD*%
D13*
%TO.P,J9,1,Pin_1*%
%TO.N,Net-(J9-Pad1)*%
X167132000Y-78486000D03*
D12*
%TO.P,J9,2,Pin_2*%
%TO.N,Net-(J9-Pad2)*%
X167132000Y-83566000D03*
%TO.P,J9,3,Pin_3*%
%TO.N,Net-(J9-Pad3)*%
X167132000Y-88646000D03*
%TD*%
D16*
%TO.N,Net-(J10-Pad1)*%
X147828000Y-67818000D03*
%TO.N,Net-(J12-Pad1)*%
X162560000Y-62484000D03*
%TO.N,ISOGNDA*%
X158811500Y-56195500D03*
X156972000Y-67310000D03*
%TO.N,Net-(J15-Pad1)*%
X162560000Y-82550000D03*
%TO.N,Net-(J13-Pad1)*%
X147828000Y-87630000D03*
%TO.N,ISOGNDB*%
X158496000Y-76200000D03*
X156972000Y-87122000D03*
%TO.N,GND*%
X121158000Y-79756000D03*
X120904000Y-59944000D03*
X118110000Y-55118000D03*
%TO.N,+5V*%
X124206000Y-54864000D03*
%TO.N,ISOGNDB*%
X146558000Y-91694000D03*
X150876000Y-84074000D03*
%TO.N,ISO5VB*%
X150415500Y-81610500D03*
X148847500Y-77720500D03*
X145034000Y-77216000D03*
%TO.N,ISOGNDB*%
X156511500Y-75231500D03*
X153416000Y-75184000D03*
X150368000Y-75184000D03*
%TO.N,GND*%
X121412000Y-71628000D03*
X121666000Y-91694000D03*
X135382000Y-73152000D03*
X135382000Y-92964000D03*
%TO.N,+5V*%
X125476000Y-87376000D03*
%TO.N,GND*%
X129540000Y-88900000D03*
%TO.N,DE-B*%
X126492000Y-85852000D03*
%TO.N,GND*%
X129540000Y-83820000D03*
%TO.N,+5V*%
X129540000Y-82296000D03*
%TO.N,Rx-B*%
X129032000Y-85344000D03*
%TO.N,+5V*%
X124968000Y-67310000D03*
%TO.N,GND*%
X129540000Y-68834000D03*
%TO.N,Rx-B*%
X128524000Y-71120000D03*
X133620688Y-50816688D03*
%TO.N,GND*%
X127254000Y-74422000D03*
%TO.N,+5V*%
X128270000Y-76962000D03*
%TO.N,Rx-A*%
X131826000Y-88646000D03*
%TO.N,Tx-B*%
X131826000Y-91186000D03*
X143764000Y-49650500D03*
%TO.N,GND*%
X127254000Y-54356000D03*
%TO.N,+5V*%
X128270000Y-56896000D03*
%TO.N,DE-A*%
X127254000Y-66040000D03*
%TO.N,+5V*%
X129794000Y-62484000D03*
%TO.N,GND*%
X129794000Y-64008000D03*
%TO.N,ISOGNDA*%
X149098000Y-57912000D03*
X145034000Y-57150000D03*
X150622000Y-61468000D03*
%TO.N,Tx-A*%
X136398000Y-52578000D03*
%TO.N,Rx-A*%
X135289312Y-52485312D03*
X146599500Y-51349500D03*
X131826000Y-65024000D03*
%TO.N,Tx-A*%
X132842000Y-71120000D03*
%TO.N,ISOGNDA*%
X146939000Y-71755000D03*
X150622000Y-64262000D03*
X143510000Y-55626000D03*
X156718000Y-54864000D03*
X153670000Y-54864000D03*
X150622000Y-54864000D03*
%TD*%
D17*
%TO.N,Tx-B*%
X142614500Y-50800000D02*
X143764000Y-49650500D01*
X135128000Y-50800000D02*
X142614500Y-50800000D01*
X130644000Y-55284000D02*
X135128000Y-50800000D01*
X130644000Y-90004000D02*
X130644000Y-55284000D01*
X131826000Y-91186000D02*
X130644000Y-90004000D01*
D18*
%TO.N,Net-(J15-Pad1)*%
X161793000Y-90429000D02*
X160782000Y-90429000D01*
X162560000Y-89662000D02*
X161793000Y-90429000D01*
X162560000Y-82550000D02*
X162560000Y-89662000D01*
D19*
%TO.N,+12V*%
X145720000Y-96190000D02*
X145720000Y-97460000D01*
X125222000Y-94996000D02*
X144526000Y-94996000D01*
D20*
X120904000Y-94996000D02*
X125222000Y-94996000D01*
D19*
X144526000Y-94996000D02*
X145720000Y-96190000D01*
D20*
X112014000Y-86106000D02*
X120904000Y-94996000D01*
X112014000Y-79502000D02*
X112014000Y-86106000D01*
D17*
%TO.N,Rx-A*%
X146599500Y-51349500D02*
X148260000Y-49689000D01*
X148260000Y-49689000D02*
X148260000Y-49200000D01*
D18*
%TO.N,Net-(J10-Pad1)*%
X150368000Y-67818000D02*
X147828000Y-67818000D01*
X152654000Y-65532000D02*
X150368000Y-67818000D01*
X152654000Y-62484000D02*
X152654000Y-65532000D01*
%TO.N,Net-(J12-Pad1)*%
X162560000Y-70104000D02*
X162560000Y-62484000D01*
X162047000Y-70617000D02*
X162560000Y-70104000D01*
X160782000Y-70617000D02*
X162047000Y-70617000D01*
D17*
%TO.N,Net-(J13-Pad1)*%
X152903000Y-85095000D02*
X150368000Y-87630000D01*
X150368000Y-87630000D02*
X147828000Y-87630000D01*
X152903000Y-82550000D02*
X152903000Y-85095000D01*
%TO.N,DE-B*%
X127254000Y-53086000D02*
X127610000Y-53086000D01*
X126238000Y-54102000D02*
X127254000Y-53086000D01*
X126238000Y-85598000D02*
X126238000Y-54102000D01*
X127610000Y-53086000D02*
X131496000Y-49200000D01*
X126492000Y-85852000D02*
X126238000Y-85598000D01*
%TO.N,Rx-B*%
X128524000Y-84836000D02*
X129032000Y-85344000D01*
X128524000Y-78486000D02*
X128524000Y-84836000D01*
X128524000Y-71120000D02*
X129286000Y-71882000D01*
X129286000Y-71882000D02*
X129286000Y-77724000D01*
X129286000Y-77724000D02*
X128524000Y-78486000D01*
X129120000Y-60872000D02*
X128524000Y-61468000D01*
X129120000Y-55317376D02*
X129120000Y-60872000D01*
X128524000Y-61468000D02*
X128524000Y-71120000D01*
X133620688Y-50816688D02*
X129120000Y-55317376D01*
%TO.N,DE-A*%
X127254000Y-55982000D02*
X134036000Y-49200000D01*
X127254000Y-66040000D02*
X127254000Y-55982000D01*
%TO.N,Rx-A*%
X131826000Y-65024000D02*
X131826000Y-88646000D01*
X131826000Y-55948624D02*
X135289312Y-52485312D01*
X131826000Y-65024000D02*
X131826000Y-55948624D01*
%TO.N,Tx-A*%
X133542000Y-70420000D02*
X132842000Y-71120000D01*
X133542000Y-55434000D02*
X133542000Y-70420000D01*
X136398000Y-52578000D02*
X133542000Y-55434000D01*
%TO.N,Rx-A*%
X149560000Y-50500000D02*
X148260000Y-49200000D01*
X179980000Y-50500000D02*
X149560000Y-50500000D01*
X181280000Y-49200000D02*
X179980000Y-50500000D01*
%TD*%
M02*
