%TF.GenerationSoftware,KiCad,Pcbnew,(6.0.9)*%
%TF.CreationDate,2022-11-14T07:28:00+00:00*%
%TF.ProjectId,mega485,6d656761-3438-4352-9e6b-696361645f70,rev?*%
%TF.SameCoordinates,Original*%
%TF.FileFunction,Profile,NP*%
%FSLAX46Y46*%
G04 Gerber Fmt 4.6, Leading zero omitted, Abs format (unit mm)*
G04 Created by KiCad (PCBNEW (6.0.9)) date 2022-11-14 07:28:00*
%MOMM*%
%LPD*%
G01*
G04 APERTURE LIST*
%TA.AperFunction,Profile*%
%ADD10C,0.050000*%
%TD*%
%TA.AperFunction,Profile*%
%ADD11C,0.150000*%
%TD*%
G04 APERTURE END LIST*
D10*
X106172000Y-71120000D02*
G75*
G03*
X106172000Y-67564000I0J1778000D01*
G01*
X102870000Y-67564000D02*
G75*
G03*
X102870000Y-71120000I0J-1778000D01*
G01*
X102870000Y-67564000D02*
X106172000Y-67564000D01*
X102870000Y-71120000D02*
X106172000Y-71120000D01*
X102870000Y-82804000D02*
X106172000Y-82804000D01*
X102870000Y-86360000D02*
X106172000Y-86360000D01*
X102870000Y-82804000D02*
G75*
G03*
X102870000Y-86360000I0J-1778000D01*
G01*
X106172000Y-86360000D02*
G75*
G03*
X106172000Y-82804000I0J1778000D01*
G01*
X183896000Y-87884000D02*
G75*
G03*
X183896000Y-91440000I0J-1778000D01*
G01*
X183896000Y-91440000D02*
X187198000Y-91440000D01*
X183896000Y-87884000D02*
X187198000Y-87884000D01*
X187198000Y-91440000D02*
G75*
G03*
X187198000Y-87884000I0J1778000D01*
G01*
X183896000Y-75692000D02*
G75*
G03*
X183896000Y-79248000I0J-1778000D01*
G01*
X183896000Y-79248000D02*
X187198000Y-79248000D01*
X183896000Y-75692000D02*
X187198000Y-75692000D01*
X187198000Y-79248000D02*
G75*
G03*
X187198000Y-75692000I0J1778000D01*
G01*
X184023000Y-55372000D02*
G75*
G03*
X184023000Y-58928000I0J-1778000D01*
G01*
X184023000Y-58928000D02*
X187325000Y-58928000D01*
X184023000Y-55372000D02*
X187325000Y-55372000D01*
X187325000Y-58928000D02*
G75*
G03*
X187325000Y-55372000I0J1778000D01*
G01*
X183896000Y-67818000D02*
G75*
G03*
X183896000Y-71374000I0J-1778000D01*
G01*
X187198000Y-71374000D02*
G75*
G03*
X187198000Y-67818000I0J1778000D01*
G01*
X183896000Y-71374000D02*
X187198000Y-71374000D01*
X183896000Y-67818000D02*
X187198000Y-67818000D01*
D11*
X199060000Y-59360000D02*
X201600000Y-61900000D01*
X100000000Y-99238000D02*
X100000000Y-47422000D01*
X201600000Y-61900000D02*
X201600000Y-96190000D01*
X198298000Y-100000000D02*
X100762000Y-100000000D01*
X100762000Y-46660000D02*
X197104000Y-46660000D01*
X100000000Y-99238000D02*
G75*
G03*
X100762000Y-100000000I762000J0D01*
G01*
X201600000Y-96190000D02*
X199060000Y-98730000D01*
X197104000Y-46660000D02*
X199060000Y-49200000D01*
X198298000Y-100000000D02*
G75*
G03*
X199060000Y-99238000I0J762000D01*
G01*
X199060000Y-49200000D02*
X199060000Y-59360000D01*
X199060000Y-98730000D02*
X199060000Y-99238000D01*
X100762000Y-46660000D02*
G75*
G03*
X100000000Y-47422000I0J-762000D01*
G01*
M02*
